<?xml version="1.0" encoding="UTF-8"?><svg id="Layer_1" xmlns="http://www.w3.org/2000/svg" viewBox="0 0 82 82"><defs><style>.cls-1{fill:#fff;}</style></defs><path class="cls-1" d="M41,82c22.64,0,41-18.36,41-41S63.64,0,41,0,0,18.36,0,41s18.36,41,41,41ZM41,2c21.54,0,39,17.46,39,39s-17.46,39-39,39S2,62.54,2,41C2.03,19.47,19.47,2.03,41,2Z"/><path class="cls-1" d="M15.11,60.75c.17.23.44.37.72.39h.07c.27,0,.52-.1.71-.29L60.85,16.61c.21-.21.31-.49.29-.78-.02-.28-.16-.55-.39-.72-5.66-4.35-12.61-6.7-19.75-6.68-17.98.02-32.55,14.59-32.57,32.57-.02,7.14,2.33,14.09,6.68,19.75ZM41,10.43c6.31-.03,12.46,1.92,17.61,5.57l-10.11,10.13c-.08-.24-.17-.48-.27-.72,2.24-2.09,2-6.18,2-6.4-.03-.55-.51-.97-1.06-.94-.55.03-.97.51-.94,1.06.02.69-.02,1.38-.14,2.06-.11.84-.41,1.64-.89,2.34-.06-.1-.13-.2-.2-.3-2.52-3.33-7.26-3.99-10.59-1.47-.56.42-1.05.91-1.47,1.47-.07.1-.13.2-.2.29-.47-.69-.77-1.48-.88-2.31-.12-.69-.17-1.38-.15-2.08.03-.55-.39-1.03-.94-1.06-.55-.03-1.03.39-1.06.94,0,.22-.22,4.31,2,6.4-.6,1.49-.94,3.07-1,4.67-.91.42-1.73,1.02-2.41,1.75l-.21.25-.44-.25-4.36-2.49-2-5.13-1.06-2.76c-.2-.52-.78-.77-1.3-.58s-.77.78-.58,1.3h0l3.16,8.22c.08.22.24.4.44.51l5.04,2.83c-.91,1.7-1.36,3.6-1.31,5.52l-.61-.18-3-.88-2-2.29-2.23-2.53c-.36-.42-.99-.46-1.41-.1-.42.36-.46.99-.1,1.41,0,0,0,0,0,0l4.43,5c.13.14.29.25.48.3l4.61,1.34c.14,1.71.34,3.32.59,4.83l-1.25,1.25-2.77.41c-.28.04-.52.19-.68.42l-4,5.86c-.18.27-.21.6-.1.9l-3.66,3.61c-3.65-5.15-5.6-11.3-5.57-17.61.02-16.88,13.69-30.55,30.57-30.57ZM29.71,39.64c-.19-2.35.57-4.67,2.12-6.45.94-1.07,2.29-1.69,3.71-1.72h4.46v3.16l-9.81,9.81c-.19-1.71-.39-3.34-.48-4.8ZM42,31.47h1.15l-1.15,1.16v-1.16ZM45.15,29.47h-10.33c.22-2.2,1.26-7.24,6.18-7.24,3.85,0,5.32,3.11,5.88,5.51l-1.73,1.73Z"/><path class="cls-1" d="M21.15,65.39c-.21.21-.31.49-.29.78.02.28.16.55.39.72,5.66,4.35,12.61,6.7,19.75,6.68,17.98-.02,32.55-14.59,32.57-32.57.02-7.14-2.33-14.09-6.68-19.75-.17-.23-.44-.37-.72-.39-.29-.02-.57.08-.78.29l-44.24,44.24ZM41,71.57c-6.31.03-12.46-1.92-17.61-5.57l8.81-8.81c2.2,3.36,5.14,5.1,8.8,5.1,3.88,0,7-1.93,9.19-5.7l.06-.09,2.65.87,2.1,3.37,1.64,2.71c.18.3.51.48.86.48.18,0,.36-.05.51-.15.47-.29.62-.9.34-1.37l-3.93-6.41c-.13-.2-.32-.36-.55-.43l-2.7-.89c.78-1.75,1.4-3.57,1.83-5.43v-.06l3.89.59,2.44,3.53,1.36,2c.18.27.49.44.82.44.2,0,.4-.06.57-.18.45-.32.56-.94.25-1.39l-4-5.86c-.16-.23-.4-.38-.68-.42l-4.19-.63c.35-1.94.61-3.9.76-5.86l4.55-1.41c.19-.05.35-.16.48-.3l4.43-5c.37-.41.33-1.04-.08-1.41,0,0,0,0,0,0-.42-.36-1.05-.32-1.41.1l-2.18,2.52-2,2.29-3,.88-.61.18c.03-1.24-.15-2.48-.51-3.66l12.12-12.2c3.65,5.15,5.6,11.3,5.57,17.61-.02,16.88-13.69,30.55-30.57,30.57ZM52.29,39.64c-.46,7.36-2.43,19.61-10.29,20.57v-12.84l10.13-10.13c.15.79.21,1.6.16,2.4ZM40,60.21c-2.78-.34-4.82-2.08-6.32-4.52l6.32-6.32v10.84Z"/></svg>