<?xml version="1.0" encoding="UTF-8"?><svg id="Layer_1" xmlns="http://www.w3.org/2000/svg" viewBox="0 0 79.35 89.93"><defs><style>.cls-1{fill:#fff;}</style></defs><path class="cls-1" d="M68.14,59.21h7.22c2.21,0,4-1.79,4-4s-1.79-4-4-4h-11.11c-2.21,0-4,1.79-4,4,0,3.39-.26,6.71-.76,9.84-.78,4.72-3.21,9.02-6.84,12.09-3.7,3.13-8.18,4.79-12.96,4.79-9.85,0-18.18-7.1-19.8-16.86-.51-3.15-.77-6.47-.77-9.86s.26-6.71.76-9.84c.78-4.72,3.21-9.02,6.84-12.09,1.42-1.21,2.9-2.16,4.34-2.81l.34-.14c.5-.21.92-.4,1.28-.5.18-.05.36-.12.53-.19.21-.09.42-.16.61-.21.2-.04.39-.1.57-.17.33-.13.69-.21,1.16-.28,2.19-.32,3.7-2.34,3.39-4.53-.31-2.19-2.34-3.7-4.53-3.39-.32.05-.63.1-.93.16v-1.84c0-1.93.95-3.8,2.45-4.98,1.14-.84,2.39-1.27,3.74-1.27.82,0,1.64.18,2.35.5,2,.92,4.38.04,5.3-1.96.92-2.01.05-4.38-1.96-5.3-1.76-.81-3.73-1.24-5.7-1.24s-3.93.43-5.76,1.25L26.86.85c-1.74-1.36-4.25-1.05-5.61.69-1.36,1.74-1.05,4.25.69,5.61l5.81,4.54c-1.46,2.27-2.25,4.91-2.25,7.68v5.02c-1.35.79-2.67,1.71-3.94,2.79-2.63,2.23-4.8,4.93-6.45,7.92l-2.71-2.72-4.81-9.66c-.98-1.98-3.39-2.79-5.36-1.8-1.98.98-2.79,3.39-1.8,5.36l5.09,10.24c.19.38.44.73.75,1.04l5.09,5.12c.24.24.51.43.79.6-.05.27-.12.54-.17.81-.37,2.31-.61,4.7-.75,7.13h-7.23c-2.21,0-4,1.79-4,4s1.79,4,4,4h7.23c.13,2.43.38,4.83.75,7.15.04.27.1.53.15.8-.27.16-.54.36-.77.59l-5.09,5.12c-.3.3-.55.66-.75,1.04L.42,84.15c-.98,1.98-.18,4.38,1.8,5.36.57.29,1.18.42,1.78.42,1.47,0,2.89-.81,3.59-2.22l4.81-9.66,2.69-2.7c4.81,8.8,14.08,14.58,24.59,14.58,6.61,0,13.04-2.38,18.13-6.68,2.63-2.23,4.8-4.93,6.45-7.92l2.71,2.72,4.81,9.66c.7,1.41,2.11,2.22,3.59,2.22.6,0,1.21-.14,1.78-.42,1.98-.98,2.79-3.39,1.8-5.36l-5.09-10.24c-.19-.38-.44-.73-.75-1.04l-5.09-5.12c-.24-.24-.51-.43-.79-.6.05-.27.12-.54.17-.81.37-2.31.62-4.7.75-7.13h0Z"/><path class="cls-1" d="M60.07,15.69c-7.82,0-14.19,6.37-14.19,14.19s6.37,14.19,14.19,14.19,14.19-6.37,14.19-14.19-6.37-14.19-14.19-14.19Z"/></svg>