<?xml version="1.0" encoding="UTF-8"?><svg id="Layer_1" xmlns="http://www.w3.org/2000/svg" viewBox="0 0 93.98 94"><defs><style>.cls-1{fill:#fff;}</style></defs><path class="cls-1" d="M93.11,60.34l-14.11-9.41v-30.93c0-5.51-4.49-10-10-10h-5.76c-1.52-3.02-3.83-5.53-6.67-7.28-2.86-1.78-6.17-2.72-9.57-2.72-6.91,0-13.13,3.83-16.24,10h-5.76c-5.51,0-10,4.49-10,10v50H6c-3.31,0-6,2.69-6,6v12c0,3.31,2.69,6,6,6h71c.18,0,.35-.03.51-.08.04-.01.08-.02.12-.04.16-.06.32-.12.46-.22h.01l8.22-5.48c4.8-3.2,7.66-8.55,7.66-14.31v-11.86c0-.67-.33-1.29-.89-1.66l.02-.02ZM19,20c0-3.31,2.69-6,6-6h7c.76,0,1.45-.43,1.79-1.11l.53-1.06c2.42-4.83,7.28-7.83,12.68-7.83,2.65,0,5.22.73,7.46,2.12,2.23,1.37,4.03,3.34,5.22,5.71l.53,1.06c.34.68,1.03,1.11,1.79,1.11h7c3.31,0,6,2.69,6,6v30.93l-6,4v-26.93c0-4.41-3.59-8-8-8h-2.17c-.41-2.44-1.56-4.7-3.35-6.48-2.27-2.27-5.28-3.52-8.48-3.52s-6.22,1.25-8.48,3.52c-1.79,1.79-2.94,4.04-3.35,6.48h-2.17c-4.41,0-8,3.59-8,8v42h-6V20ZM60.89,60.34c-.56.37-.89,1-.89,1.66v8h-31V28c0-2.21,1.79-4,4-4h4c1.1,0,2-.9,2-2,0-2.14.83-4.14,2.34-5.66,1.51-1.52,3.52-2.34,5.66-2.34s4.14.83,5.66,2.34c1.52,1.51,2.34,3.52,2.34,5.66,0,1.1.9,2,2,2h4c2.21,0,4,1.79,4,4v29.6l-4.11,2.74ZM4,88v-12c0-1.1.9-2,2-2h54c.04,5.71,2.9,11,7.65,14.18l2.74,1.82H6c-1.1,0-2-.9-2-2h0ZM90,73.86c0,4.42-2.2,8.53-5.88,10.98l-7.12,4.75-7.12-4.75c-3.68-2.45-5.88-6.56-5.88-10.98v-10.79l4.09-2.73s.03-.02.05-.03l8.86-5.91,13,8.67v10.79Z"/><path class="cls-1" d="M72.41,70.59c-.78-.78-2.05-.78-2.83,0-.78.78-.78,2.05,0,2.83l5,5c.38.38.89.59,1.41.59h.11c.57-.03,1.1-.3,1.45-.75l8-10c.69-.86.55-2.12-.31-2.81-.86-.69-2.12-.55-2.81.31l-6.6,8.26-3.42-3.42h0Z"/><path class="cls-1" d="M47,44c5.24,0,9.5-4.26,9.5-9.5s-4.26-9.5-9.5-9.5-9.5,4.26-9.5,9.5,4.26,9.5,9.5,9.5ZM47,29c3.03,0,5.5,2.47,5.5,5.5s-2.47,5.5-5.5,5.5-5.5-2.47-5.5-5.5,2.47-5.5,5.5-5.5Z"/><path class="cls-1" d="M57,50h-20c-1.1,0-2,.9-2,2s.9,2,2,2h20c1.1,0,2-.9,2-2s-.9-2-2-2Z"/><path class="cls-1" d="M57,60h-20c-1.1,0-2,.9-2,2s.9,2,2,2h20c1.1,0,2-.9,2-2s-.9-2-2-2Z"/><path class="cls-1" d="M52,80H12c-1.1,0-2,.9-2,2s.9,2,2,2h40c1.1,0,2-.9,2-2s-.9-2-2-2Z"/></svg>