<?xml version="1.0" encoding="UTF-8"?><svg id="Layer_1" xmlns="http://www.w3.org/2000/svg" viewBox="0 0 61.3 70.5"><defs><style>.cls-1{stroke-width:.5px;}.cls-1,.cls-2,.cls-3{fill:#fff;stroke:#fff;stroke-miterlimit:10;}.cls-2{stroke-width:.3px;}</style></defs><path class="cls-3" d="M35.03,36.77c-.84.17-1.38.99-1.21,1.83s.99,1.38,1.83,1.21,1.38-.99,1.21-1.83-.99-1.38-1.83-1.21ZM35.42,38.72c-.24.05-.47-.11-.52-.35s.11-.47.35-.52.48.1.52.35-.11.47-.35.52ZM32.84,46.03c-.84.17-1.38.99-1.21,1.83s.99,1.38,1.83,1.21,1.38-.99,1.21-1.83-.99-1.38-1.83-1.21ZM33.23,47.98c-.24.05-.47-.11-.52-.35s.11-.48.35-.52.47.11.52.35-.11.47-.35.52ZM53.26,29.68c-.84.17-1.38.99-1.21,1.83.17.84.99,1.38,1.83,1.21s1.38-.99,1.21-1.83-.99-1.38-1.83-1.21ZM53.65,31.64c-.24.05-.47-.11-.52-.35s.11-.47.35-.52.47.11.52.35-.11.47-.35.52ZM56.35,54.51c.14,0,.28.02.41.03h0c-.14,0-.28-.02-.41-.03ZM56.35,54.51c.14,0,.28.02.41.03h0c-.14,0-.28-.02-.41-.03ZM56.35,54.51c.14,0,.28.02.41.03h0c-.14,0-.28-.02-.41-.03ZM56.35,54.51c.14,0,.28.02.41.03h0c-.14,0-.28-.02-.41-.03ZM38.84,57.03l-.52-.35c-.25-.17-.6-.1-.77.16-.17.26-.1.6.16.77l.52.35c.13.08.28.11.42.08s.27-.11.35-.24c.17-.25.1-.6-.16-.77ZM30.01,37.11c-.3.06-.5.35-.44.65l.07.33c.06.3.35.49.66.43s.49-.35.43-.65l-.07-.33c-.06-.3-.35-.49-.65-.43ZM38.08,33.44c-.3.06-.49.35-.43.65l.07.33c.06.3.35.49.65.43s.49-.35.43-.65l-.07-.33c-.06-.3-.35-.49-.65-.43ZM39.75,48.36c-.3.06-.49.35-.43.65l.07.33c.06.3.35.49.65.43s.49-.35.43-.65l-.07-.33c-.06-.3-.35-.49-.65-.43Z"/><path class="cls-2" d="M58.19,43.95c-.56.45-1.41.27-2.39.05-.62-.14-1.32-.29-1.79-.23-1.42.18-5.76.71-6.63,1.5-.25.22-.3.85-.14,1.52.11.44.27.77.43.99.14.19.38.27.6.2.53-.18,1.46-.7,2.06-1.04,1.13-.63,2.1-1.18,2.8-1.18.86,0,1.68.76,2.05,1.51.33.66.31,1.31-.05,1.77-.47.6-1.62,1.22-3.46,2.15-1.06.54-2.16,1.1-2.58,1.47-.16.14-.31.93-.32,1.58,0,.37-.29.66-.66.66s-.66-.3-.66-.66c0-.45.06-1.96.77-2.58.55-.47,1.67-1.04,2.85-1.64.94-.48,2.16-1.1,2.74-1.54.21-.16.28-.44.16-.67-.02-.04-.05-.09-.08-.14-.26-.39-.6-.59-.75-.59-.36,0-1.4.59-2.16,1.02-1.59.89-2.61,1.42-3.37,1.22-.88-.23-1.43-1.29-1.65-2.21-.29-1.19-.09-2.24.54-2.81,1.04-.94,4.15-1.43,7.35-1.83.7-.09,1.52.09,2.24.25.19.04.42.09.63.13.35.07.66-.23.62-.59-.05-.4-.18-.89-.32-1.25-.08-.2-.28-.33-.5-.33h-.23c-.51.03-1.37.07-1.67-.69-.21-.54.04-1.26.33-2.11.03-.08.06-.18.09-.27.13-.38-.2-.76-.6-.69-.24.05-.48.12-.65.22-.13.08-.22.21-.24.37-.04.22-.05.53-.06.75-.04.77-.08,1.74-.74,2.34-.96.89-4.78,1.65-5.76,1.15-.21-.1-.36-.29-.42-.51-.15-.55.23-1.16.93-2.27.63-1,1.5-2.38,1.65-3.43.41-2.93.32-3.68.15-5.04-.03-.22-.52-.39-1.32-.35-.24.01-.45.19-.49.43-.08.48-.12,1.23-.14,1.79-.09,2.21-.21,4.97-2.19,6.06-.27.15-.57.18-.85.07-.7-.26-1.06-1.21-1.49-2.33-.12-.31-.29-.75-.44-1.06-.11-.22-.35-.34-.59-.28-.37.09-.87.3-1.26.62-.27.22-.42.45-.4.61.05.63,1.13,2.38,1.91,3.66,1.49,2.43,2.03,3.41,1.83,4.11-.08.27-.26.48-.51.59-.65.29-1.57-.14-3.15-.91-.78-.38-1.98-.97-2.36-.94-.45.04-1.01.61-1.3,1.08-.16.26-.07.59.19.74.32.18.76.37,1.04.5.29.13.57.25.8.37.35.18.85.33,1.38.49,1.09.33,2.32.7,3.05,1.54.94,1.09,1.15,2.47,1.41,4.22l.11.73c.07.43.1,2.18.12,3.34,0,.4-.43.66-.78.47l-.27-.15c-.16-.09-.27-.26-.27-.45-.02-1.28-.05-2.7-.1-3l-.11-.74c-.24-1.6-.41-2.75-1.1-3.55-.48-.56-1.51-.87-2.42-1.14-.59-.18-1.15-.35-1.6-.58-.22-.11-.47-.22-.73-.34-1.09-.48-2.11-.93-2.22-1.8-.09-.74.55-1.59.74-1.83.28-.34,1.03-1.16,1.97-1.22.69-.05,1.61.37,3.04,1.07.07.04.15.07.23.11.47.23.94-.29.68-.74s-.54-.91-.78-1.3c-1.22-1.99-2.02-3.36-2.1-4.23-.05-.62.25-1.21.88-1.73.75-.62,2.08-1.15,2.91-.92.69.19,1.02,1.07,1.45,2.19.08.21.18.47.28.73.16.39.71.45.93.09.63-1.05.7-2.76.76-4.2.07-1.76.14-3.29,1.34-3.44,1.89-.23,3.1.31,3.25,1.46.19,1.54.26,2.42-.16,5.39-.19,1.33-1.1,2.79-1.84,3.95h0c-.24.38.08.87.52.8,1.07-.17,2.34-.51,2.72-.85.25-.24.28-.87.31-1.43.03-.69.06-1.4.51-1.85.59-.61,1.77-.86,2.58-.8.54.04.93.23,1.15.54.37.53.11,1.28-.21,2.22-.11.31-.27.78-.32,1.06.11,0,.25,0,.35,0,.54-.03,1.29-.06,1.71.54.45.66,1.29,3.2.26,4.04h-.02Z"/><path class="cls-1" d="M.25,18.25v34c0,.4.2.7.5.9l29.5,17c.1.1.2.1.4.1s.3,0,.5-.1l9.2-5.3,2-1.1,6-3.5h0l2-1.2,10.2-5.9c.3-.2.5-.5.5-.9V18.25c0-.4-.2-.7-.5-.9L31.15.35c-.2-.1-.5-.1-.7-.1-.1,0-.2,0-.3.1l-10.4,6-2,1.2-6,3.5-2,1.2L.75,17.45c-.4.1-.5.4-.5.8ZM59.05,51.65l-8.7,5-2,1.2-6,3.5h0l-2,1.2-8.7,5h0v-31.7h0l8.7-5,2-1.2,6-3.5,10.7-6.2v31.7ZM58.05,18.25l-8.7,5-2,1.2h0l-6,3.5-2,1.2h0l-8.7,5-8.7-5,8.7-5,2-1.2,6-3.4,2-1.2,8.8-5s8.6,4.9,8.6,4.9ZM47.55,12.15l-8.9,5-2,1.2-6,3.4-2,1.2-8.7,5h0l-.5.3c-.3.2-.5.5-.5.9v9.1l-2.1-3.6c-.2-.3-.5-.5-.9-.5-.2,0-.3,0-.5.1l-2.5,1.4v-10.6l1-.6h0l8.6-4.9,2-1.2,6-3.4,2-1.2,8.9-5.1s6.1,3.5,6.1,3.5ZM11.75,13.35l2-1.2,6-3.5,2-1.2,8.9-5.1,8.9,5.1-8.9,5.2-2,1.2-6,3.4-2,1.2-8.7,4.8h0l-8.7-5,8.5-4.9ZM2.25,19.95l8.7,5v12.1c0,.4.2.7.5.9s.7.2,1,0l3.2-1.7,3.5,5.9c.2.3.5.5.9.5h.3c.4-.1.7-.5.7-1v-11l8.7,5v31.7L2.25,51.65v-31.7Z"/></svg>