<?xml version="1.0" encoding="UTF-8"?>
<svg id="Layer_1" xmlns="http://www.w3.org/2000/svg" viewBox="0 0 211.46 23.73">
    <g class="cls-1">
        <g class="cls-1">
            <path class="cls-2" d="M15.08.33v4.52H5.64v4.88h7.06v4.39h-7.06v9.37H0V.33h15.08Z" />
            <path class="cls-2"
                d="M56.26,23.5l-4.82-8.75h-1.35v8.75h-5.64V.33h9.47c1.83,0,3.38.32,4.67.96,1.29.64,2.25,1.51,2.89,2.62.64,1.11.96,2.35.96,3.71,0,1.54-.43,2.92-1.3,4.12s-2.15,2.07-3.84,2.57l5.35,9.17h-6.37ZM50.09,10.76h3.5c1.03,0,1.81-.25,2.33-.76.52-.51.78-1.22.78-2.14s-.26-1.57-.78-2.08c-.52-.51-1.29-.76-2.33-.76h-3.5v5.74Z" />
            <path class="cls-2"
                d="M106.79,19.4h-8.65l-1.39,4.09h-5.91L99.23.33h6.53l8.38,23.17h-5.97l-1.39-4.09ZM105.34,15.05l-2.87-8.48-2.84,8.48h5.71Z" />
            <path class="cls-2"
                d="M158.47,7.66c-.42-.77-1.02-1.36-1.8-1.77s-1.7-.61-2.75-.61c-1.83,0-3.29.6-4.39,1.8-1.1,1.2-1.65,2.8-1.65,4.8,0,2.13.58,3.8,1.73,5,1.15,1.2,2.74,1.8,4.77,1.8,1.39,0,2.56-.35,3.51-1.06s1.65-1.72,2.09-3.04h-7.16v-4.16h12.28v5.25c-.42,1.41-1.13,2.72-2.13,3.93-1,1.21-2.27,2.19-3.81,2.94-1.54.75-3.28,1.12-5.21,1.12-2.29,0-4.33-.5-6.12-1.5-1.79-1-3.19-2.39-4.19-4.17s-1.5-3.82-1.5-6.11.5-4.33,1.5-6.12,2.39-3.19,4.17-4.19c1.78-1,3.82-1.5,6.11-1.5,2.77,0,5.11.67,7.01,2.01,1.9,1.34,3.16,3.2,3.78,5.58h-6.24Z" />
            <path class="cls-2"
                d="M198.46,22.9c-1.34-.55-2.41-1.36-3.22-2.44-.8-1.08-1.23-2.38-1.27-3.89h6.01c.09.86.38,1.51.89,1.96.51.45,1.17.68,1.98.68s1.5-.19,1.98-.58c.48-.38.73-.92.73-1.6,0-.57-.19-1.04-.58-1.42s-.86-.68-1.42-.92c-.56-.24-1.36-.52-2.39-.83-1.5-.46-2.72-.92-3.66-1.39-.95-.46-1.76-1.14-2.44-2.05-.68-.9-1.02-2.08-1.02-3.53,0-2.16.78-3.84,2.34-5.07,1.56-1.22,3.6-1.83,6.11-1.83s4.61.61,6.17,1.83c1.56,1.22,2.4,2.92,2.51,5.1h-6.1c-.04-.75-.32-1.34-.83-1.76-.51-.43-1.16-.64-1.95-.64-.68,0-1.23.18-1.65.54s-.63.89-.63,1.57c0,.75.35,1.33,1.06,1.75.7.42,1.8.87,3.3,1.35,1.5.51,2.71.99,3.65,1.45.93.46,1.74,1.13,2.43,2.01.68.88,1.02,2.01,1.02,3.4s-.33,2.52-1.01,3.6c-.67,1.08-1.65,1.94-2.92,2.57-1.28.64-2.78.96-4.52.96s-3.21-.28-4.55-.83Z" />
        </g>
    </g>
</svg>