<?xml version="1.0" encoding="UTF-8"?>
<svg id="Layer_1" xmlns="http://www.w3.org/2000/svg" viewBox="0 0 90.3 61.24">
  <defs>
    <style>
      .cls-1 {
        fill: #fff;
      }
    </style>
  </defs>
  <path class="cls-1" d="M89.03,28.51c.57-.48.99-1.11,1.21-1.82.12-.49.05-.72-.21-.72-.28,0-.5.17-.69.54-.31.56-.7,1.08-1.17,1.52-.69.61-1.23,1.36-1.6,2.2-.17.39-.38.75-.64,1.09-.12.09-.36.11-.99.11h-.83l.11-.35c.16-.55.32-.69,1.23-1.14.79-.33,1.45-.92,1.84-1.69.63-1.06.55-2.17-.13-1.91-.43.17-.72.57-.76,1.03,0,.24-.1.35-.62.75-.2.15-.34.21-.45.18s-.18,0-.21.08c-.03.06-.07.1-.09.08.06-.23.15-.45.27-.65.33-.62.57-1.28.7-1.96.04-.5.16-.98.34-1.44.29-.49.69-.92,1.16-1.25.8-.44,1.35-1.23,1.48-2.13,0-.74-.2-.76-.85-.08l-.47.5.14-.52c.18-.6.27-1.22.27-1.84-.03-.11-.11-.2-.22-.23-.48-.12-.82.31-.93,1.2-.07.9-.44,1.76-1.05,2.43-.49.55-.72.91-.72,1.17-.06.66-.16,1.33-.3,1.98-.05.17-.11.27-.16.24-.28-.45-.48-.94-.58-1.46-.28-.94-.11-1.95.45-2.75.41-.78.47-1.17.21-1.43-.29-.29-.46-.22-1.35.57-.14.14-.31.25-.5.31-.17,0-.16-.01.73-1.48.41-.54.7-1.17.84-1.83.11-.55.05-.78-.22-.92-.26-.17-.59-.13-.81.08-.32.29-.52.7-.56,1.13-.05.29-.16.57-.33.82-.12.17-.21.37-.26.57-.08.28-.2.55-.36.8-.43.64-.98,1.18-1.63,1.6-.4.32-.71.75-.87,1.24-.08.26-.23.49-.44.66-.16.12-.29.26-.29.32-.03.1-.09.18-.17.24-.49.35-1.02.65-1.57.89.06-.38.2-.74.42-1.06.11-.1.24-.18.39-.22.64-.41,1.18-.95,1.58-1.6.16-.24.34-.46.54-.67.27-.38.45-.83.51-1.29,0-.31-.23-.57-.54-.6-.47,0-.98.51-1.57,1.59-.26.48-.95,1.28-1.04,1.2.02-.22.06-.44.13-.65.11-.5.18-1.02.21-1.53.05-.84.07-.92.22-1.05.19-.18.47-.24.71-.15.28.13.39.1.82-.19.29-.18.6-.33.92-.45.32-.14.67-.18,1.01-.13.48.05.51.04.74-.17.18-.12.28-.34.25-.56,0-.49-.16-.62-.85-.68-.34-.07-.69-.02-1,.14-.15.07-.31.13-.47.16-.01-.01.06-.14.17-.29.29-.42.47-.9.51-1.41-.01-.49.16-.97.49-1.33.37-.5.46-.86.27-1.05-.25-.25-.66,0-1.02.6-.13.21-.3.49-.37.62-.11.21-.18.43-.22.66-.08.47-.31.91-.65,1.24-.19.2-.35.41-.49.64-.35.52-.8.97-1.33,1.31-.2,0-.11-.61.23-1.51.2-.69.55-1.33,1.02-1.87.37-.42.57-.97.56-1.53,0-.42-.13-.65-.34-.62-.21.16-.38.36-.51.58-.25.37-.53.73-.83,1.06-.22.22-.4.47-.54.75-.05.14-.12.25-.16.25-.14,0,.01-.82.27-1.4.31-.55.45-1.17.4-1.8-.03-.69-.18-1.03-.49-1.08-.21-.03-.46.37-.46.75-.12,1.12-.45,2.21-.96,3.22-.23.25-.28.62-.11.91.07.18.11.37.11.57,0,.16.03.32.1.46.16.47.25.97.26,1.47-.09.56-.37,1.07-.78,1.46-.14.16-.3.31-.47.44-.21-.42-.34-.88-.38-1.35-.01-.27-.1-.54-.24-.78-.37-.54-.4-1.25-.08-1.82.08-.24.13-.49.13-.75,0-.74-.26-.9-.71-.4-.4.41-.63.97-.62,1.54-.03.42,0,.84.08,1.24.11.55.11.63,0,.87-.15.37-.15.37.15.65.19.14.3.37.3.61.05.58-.12.8-.98,1.27-.37.19-.72.41-1.06.65-.11.1-.24.18-.37.25-.17-.25-.31-.52-.43-.79-.21-.35-.34-.73-.38-1.14,0-.32-.01-.35-.2-.37s-.21-.08-.35-.58c-.09-.33-.23-.63-.42-.91-.61-.8-.57-1.39.24-3,.41-.7.7-1.46.85-2.25.13-1.28-.36-1.29-1.12-.04-.27.45-.31.48-.53.46-.12-.01-.25.01-.35.07-.1.09-.11.07-.07-.12.04-.27.07-.54.09-.81.03-.53.02-.62-.13-.88-.21-.37-.36-.4-.73-.15-.64.45-.74,1.22-.36,2.86.2.84.21,1.02.15,1.29-.23.61-.57,1.17-1.01,1.65l-.4.49.38.56c.12.19.26.38.41.56.15-.15.29-.32.41-.49l.38-.49.14.21c.57.87,1.05,1.8,1.42,2.78.07.28.17.55.29.81.12.25.23.51.31.78.25.52.21,1.14-.12,1.62l-.23.47.19.86c.1.47.23,1.14.28,1.49s.1.64.11.65c.14-.06.26-.14.38-.23.52-.4,1.12-.69,1.76-.86.67-.17.89-.31,1.12-.71.21-.28.21-.66.01-.94-.24-.24-.62-.26-.88-.05-.18.11-.38.18-.58.22-.49.1-.94.33-1.3.68-.18.17-.33.26-.33.22.09-.21.21-.4.35-.58.19-.28.42-.62.52-.76.14-.22.27-.46.38-.7.11-.23.25-.45.42-.64.48-.43,1.04-.76,1.64-.99,1.04-.29,1.22-.42,2.27-1.59.73-.81.88-.95.93-.83.12.31.05.76-.3,1.82-.38.75-.5,1.61-.33,2.44.12.48.12.98,0,1.46-.07.4-.2,1.06-.3,1.45-.16.65-.22,1.32-.18,1.99.04.44.01.88-.08,1.32-.13.08-.4-.1-.61-.43-.18-.28-.2-.36-.2-1.1,0-.44.05-1.29.12-1.89.17-.95.13-1.92-.12-2.86-.15-.31-.43-.54-.76-.63-.1.02-.2.07-.27.15-.19.19-.19.6-.03,1.57.12.58.12,1.19,0,1.77-.14.8-.15,1.62-.05,2.42.04.22.11.63.15.91.09.48.25.94.48,1.37.46.94.74,1.95.82,2.99.01,1.11-.3,2.2-.9,3.13-.63,1.28-.96,1.73-1.33,1.8-.17.03-.18.02-.14-.16.16-.84.24-1.7.23-2.56-.01-.56.03-1.11.13-1.66.18-.42.39-.83.63-1.21.21-.32.38-.65.53-1.01-.04-.25-.24-.45-.49-.51-.3,0-.43.11-.75.65s-.5.73-.55.63c0-.28.04-.56.1-.83.09-.56.14-1.13.14-1.71,0-.83-.01-.95-.15-1.12-.2-.25-.31-.24-.54.03-.18.22-.19.26-.19,1.31.05.57,0,1.14-.17,1.68-.1.1-.3-.12-.44-.51-.11-.32-.29-.6-.54-.83-.24-.2-.41-.47-.49-.78l-.11-.4-.06.6-.06.59.27.28c.93.85,1.27,2.17.89,3.37-.53,1.25-1.49,2.26-2.71,2.83-.37.21-.73.45-1.08.7-.35.58-.63,1.2-.82,1.85-.08.3-.22,1.02-.3,1.59-.25,1.71-.25,1.7-.56.94-.38-1.1-.3-2.31.21-3.36.14-.28.21-.49.17-.47-.82.35-1.65.67-2.33.89-.36.08-.71.23-1,.46-.13.16-.19.18-.49.14-.37-.02-.73.02-1.08.13-.42.1-.9.21-1.09.23-.37.06-.48.18-.48.57,0,.21.04.28.27.42.29.18.65.22.97.11.17-.06.17-.05.13.15-.27,1.18-.17,1.25,1.26.95.15-.07.27-.19.35-.33.21-.34.45-.39.66-.14.1.11.14.28.15.65,0,.26.05.52.13.77.15.35.15.57,0,.74s-.34.17-.92-.01c-.24-.08-.49-.13-.74-.14-.18-.03-.36.07-.42.24-.31.52-.13,1,.49,1.28.19.09.39.15.59.18.47.12.9.34,1.27.65.11.29.15.59.13.9-.03,0-.27-.09-.54-.19-.85-.32-3.29-1.05-4.66-1.4-4.28-1.1-8.69-1.63-13.11-1.6-2.9-.03-5.79.2-8.65.68-.74.12-1.37.22-1.4.22-.1,0-.06-.69.05-.94.16-.37.04-.44-.51-.29-.49.14-.74.08-.74-.17.65-.81,1.41-1.53,2.27-2.12.96-.72,1.12-.91,1.12-1.25,0-.29.03-.27-.94-.5-.88-.2-.74-.27-1.41.76-.96,1.38-2.21,2.53-3.65,3.38-.47.29-1.06.28-1.52-.01-.18-.13-.33-.28-.45-.46-.11-.13-.13-.32-.05-.47.27-.41.69-.71,1.16-.83.27-.1.78-.29,1.14-.42,1.08-.36,2.01-1.1,2.6-2.07.18-.33.18-.36.06-.41-.45-.17-.89-.39-1.29-.65-.12-.1-.26-.18-.39-.26-.12.16-.22.34-.3.52-.24.53-.63.99-1.12,1.3-.3.14-.66,0-.8-.29-.01-.03-.02-.06-.03-.09-.1-.38-.06-.77.1-1.12.31-.41.68-.78,1.1-1.09l.21-.15-.27-.44c-.12-.19-.23-.4-.31-.62-.04-.16-.05-.16-.2.11-.08.15-.21.28-.37.35-.18.06-.23.05-.39-.13-.13-.11-.18-.28-.13-.44.06-.29.28-.52.56-.6.2-.04.14-.08-.68-.48-.33-.18-.68-.33-1.04-.45-.28.03-.53.19-.69.42-.18.42-.17.9.02,1.32.08.16.28.54.45.84.51.87.64,1.91.38,2.89-.15.59-.56.54-1.07-.15-.07-.11-.16-.21-.26-.3-.1.1-.18.21-.24.33-.26.43-.61.8-1.03,1.07-.26,0-.3-.27-.19-1.21.06-.49.1-1.34.1-1.89,0-.87-.02-1.03-.15-1.25-.21-.35-.5-.39-.65-.09-.12.25-.42.35-.67.23,0,0-.02,0-.03-.01-.25-.12-.29-.35-.1-.74.21-.39.26-.84.15-1.27-.08-.36-.37-.64-.74-.7-.37,0-.44.15-.44.91s-.12,1.12-.45,1.3c-.25.13-.56.03-.69-.22-.01-.03-.02-.05-.03-.08-.14-.69-.02-1.41.33-2.03.25-.42.3-.92.14-1.38-.17-.6-.37-.78-.88-.78h-.4l-.15-.35c-.1-.25-.19-.5-.27-.76-.08-.25-.2-.49-.36-.7-.62-.62-.92-1.49-.8-2.36.01-1.14.01-1.14-.78-.94-.23.06-.3-.12-.39-1.12-.16-1.65-.44-2.62-.77-2.68-.23-.05-.46.05-.58.25-.04.1-.14.18-.25.18-.38,0-.38-.84.01-2.08.26-1.03,1-1.86,1.99-2.24.31-.14.6-.31.87-.53.39-.5.54-1.14.43-1.76-.08-.23-.11-.26-.37-.26-.42,0-.84.43-1,1.04-.13.47-.34.7-.57.61-.4-.15-.01-1.09.77-1.89.25-.32.6-.54.99-.64.22-.07.45-.13.68-.16.27-.02.52-.15.69-.36.13-.25.08-.45-.3-1.29-.49-1.08-.46-1.04-.68-1.06-.26-.03-.62.36-1.24,1.36-.28.46-.74,1.14-1.02,1.52-.67.91-.75,1.08-.82,1.78-.05.48-.09.62-.22.73-.2.16-.29.17-.5.02-.41-.29-.33-.94.2-1.76.22-.42.57-.75.98-.97.2-.1.37-.25.5-.43.33-.35.3-.91-.05-1.23-.19-.18-.45-.26-.71-.22-.51.02-.98.27-1.28.68-.56.44-.69,1.24-.29,1.82.32.46.2.95-.33,1.44-.33.3-.7.35-.91.12-.24-.26-.28-.59-.18-1.46s.06-1.21-.11-1.21c-.16.08-.29.19-.4.32-.15.21-.39.35-.64.38-.39.06-.63.25-.63.5,0,.56.96,1.7,1.88,2.23.89.51,1.25,1,1.07,1.43-.07.15-.19.22-.62.36-.92.28-1.6.85-1.6,1.36,0,.47.61,1.24,1.51,1.93.41.31.52.43.54.62s-.03.27-.31.5c-.64.52-.41.89,1.15,1.93.37.22.71.48,1.03.77.12.26.06.58-.15.77-.44.55-.2,1.05.77,1.62.18.09.34.2.49.34,0,.07-.27.14-.52.15-.12,0-.24.06-.33.15-.32.36.19.71,1.4.95.93.19,1.13.37.91.85-.19.42-.57.26-.84-.33-.16-.34-.43-.41-.56-.13-.17.23-.4.41-.67.51-.24.1-.29.33-.26,1.27.02.81,0,.93-.12,1.07-.2.22-.24.2-.21-.12-.14-1.23-.43-2.43-.85-3.59-.23-.4-.7-.35-.92.1l-.11.23-.13-.2c-.26-.7-.18-1.49.23-2.12.43-.85.1-1.39-.85-1.39-.58,0-.65.11-.53.88.09.6.03.82-.23.82-.33-.08-.61-.28-.79-.57-.28-.41-.27-.8.06-2.09.3-.78.43-1.61.38-2.45-.09-.39-.18-.46-.75-.57-.58-.11-.86-.36-.95-.83-.08-.44-.25-.71-.49-.77-.33-.08-.52.08-.81.67-.21.36-.31.76-.31,1.18-.11.57.08,1.15.5,1.55.61.57.8,1.44.49,2.21-.35.63-.64.36-.78-.73-.11-.88-.36-1.04-.96-.58-.58.43-.72,1.25-.31,1.84.1.17.18.35.22.54-.05.17-.14.32-.26.44-.46.42-.5,1.15-.07,1.61.04.05.09.09.14.13.51.42,1.16.64,1.82.61.36.02.72.09,1.06.23.55.32,1.03.75,1.41,1.26l.27.36-.34.48c-.11.19-.26.35-.44.48-.32-.14-.6-.35-.83-.6-.16-.22-.3-.45-.42-.7-.26-.53-.61-.91-.85-.91s-.52.29-.75.74c-.38.74-.24,1.17.41,1.3.67.14.57.87-.21,1.43-.11.09-.22.16-.35.22-.03,0-.07-.15-.09-.33-.05-.45-.22-.7-.49-.7-.13,0-.25.06-.34.15-.09.14-.28.18-.41.09-.03-.02-.06-.04-.08-.07-.18-.37-.34-.75-.45-1.14-.62-1.85-1.09-2.64-1.56-2.64-.24,0-.45.16-.49.4-.03.17-.19.28-.36.25-.01,0-.02,0-.03,0-.21-.08-.35-.57-.39-1.34-.19-1.39.34-2.79,1.41-3.7,1.07-.81,1.24-1.08,1.24-1.97,0-.68-.16-1.19-.39-1.26-.31-.03-.61.13-.75.4-.23.3-.35.68-.33,1.06,0,.46-.13.74-.36.78-.44.06-.49-.41-.16-1.4.24-.96.94-1.75,1.87-2.09.7-.33.86-.5.86-.87,0-.2-.1-.36-.87-1.34-.53-.69-.64-.78-.81-.76-.3.03-.6.54-.97,1.65-.18.53-.53,1.42-.77,1.99l-.45,1.03v1c0,1.11-.05,1.25-.42,1.25-.46,0-.79-.65-.65-1.28.14-.54.34-1.07.6-1.57.09-.14.21-.26.35-.35.35-.32.59-.74.67-1.21,0-.5-.41-.91-.91-.94-.84-.15-1.97,1.04-1.97,2.08-.03.45.16.88.51,1.16.27.26.3.33.3.63-.01.28-.09.55-.22.79-.18.37-.28.47-.52.56-.27.16-.62.07-.78-.21-.01-.02-.02-.04-.03-.06-.24-.46-.36-.96-.36-1.48-.03-.31-.08-.61-.17-.91-.14-.31-.36-.21-.62.28-.19.36-.26.44-.51.5-.33.06-.58.32-.64.65.11.43.38.81.74,1.07.62.45,1.3.81,2.03,1.05,1,.29,1.52.76,1.4,1.28-.03.14-.17.26-.5.44-.62.33-1.13.85-1.45,1.48-.11.32-.04.68.18.93.57.54,1.23.98,1.96,1.29.91.39.98.6.44,1.23s-.11,1.04,2.01,1.82c1.27.47,1.49.73,1.17,1.37-.16.27-.19.6-.07.89.37.36.84.61,1.34.74.21.05.4.14.58.26,0,.04-.17.13-.38.19-.42.13-.51.22-.51.53,0,.35.35.46,1.65.46,1.01,0,1.11.02,1.25.17.18.22.21.53.06.78-.18.22-.42.14-.85-.29-.43-.44-.57-.46-.7-.12-.06.15-.15.28-.26.4-.42.42-.16.78.76,1.06,1.04.32,1.42.58,1.66,1.15.19.45.15.75-.11.97-.28.24-.45.24-.93,0-.99-.63-1.7-1.6-2.01-2.73-.2-1.06-.92-1.94-1.91-2.36-.37-.11-.66-.39-.78-.75-.12-.32-.12-.4.01-1.69.04-.38.03-.47-.11-.65s-.21-.2-.6-.2c-.2,0-.4.02-.58.08-.19.1-.18.4,0,.88s.18.57,0,.67c-.12.06-.22.05-.49-.09-.66-.33-.77-.67-.7-2.31.05-1.22-.04-1.87-.28-2.11-.11-.11-.25-.14-.6-.14-.57,0-.92-.18-.99-.52-.09-.44-.67-.74-.93-.48-.36.71-.42,1.54-.15,2.29.19.33.46.61.79.8.34.29.59.67.72,1.1.1.37-.06.89-.28.92-.18.03-.35-.21-.55-.78-.29-.83-.59-.9-1.05-.21-.34.54-.21,1.25.3,1.65.22.22.23.57.02.8-.29.51-.1,1.16.41,1.44.03.02.06.03.09.04.29.14.52.15,2.05.09.37-.07.75,0,1.07.18.92.48,1.51,1.08,1.43,1.45-.06.25-.29.43-.55.44-.56-.1-1.06-.41-1.41-.85-.35-.46-.58-.62-.86-.62-.27,0-.44.19-.57.63-.23.77-.07,1.14.51,1.14.43,0,.6.18.55.59-.04.3-.08.37-.77,1.17-.55.65-.51,1.01.14,1.19.14.03.27.12.34.25.07.12.16.23.28.31.18.12.2.12.39-.03.35-.34.6-.77.73-1.24.41-1.09.86-1.81,1.13-1.81.17,0,.22.14.22.57s-.07.55-.49,1c-.36.38-.42.67-.17.8.11.06.24.06.34-.01.2-.1.23-.14.43-.59.13-.3.29-.35.55-.18.13.08.3.04.38-.09.02-.04.04-.08.04-.13-.08-.32-.2-.62-.35-.91-.38-.79-.44-1.13-.21-1.17.61.53,1.11,1.18,1.47,1.91.9,1.47,1.69,1.87,3.9,1.99,1.3.07,1.65.14,1.95.37.34.26.23.76-.26,1.22-.5.48-1.09.5-2.25.1-1.26-.4-2.42-1.06-3.43-1.93-.67-.57-.95-.71-1.22-.59-.1.04-.18.12-.23.21-.09.15-.2.28-.34.4-.25.24-.28.31-.26.56s.05.3.43.48c.22.11.7.3,1.07.43.37.13,1.07.43,1.57.67.86.41.91.44.89.63-.03.23-.19.3-.75.31-.44,0-.52.15-.25.44.12.13.19.28.21.46.02.23.05.26.27.28.25.03.53-.11,1.45-.68.43-.26.91-.44,1.41-.52.28-.06.55.13.61.41,0,.03,0,.07.01.1-.1.47-.37.88-.76,1.16-.39.26-.84.41-1.3.43-.26-.02-.52-.07-.78-.14-1.05-.29-1.71-.26-1.97.07-.17.32-.18.7-.02,1.03.17.14.57.04.95-.21.35-.25.52-.27.81-.14.27.13.24.38-.14,1.02-.47.78-.44,1.04.17,1.3.65.27,1.05-.07,1.05-.89,0-.24.03-.48.08-.72.15-.53.84-.86,1.03-.5.06.11.06.23-.03.49-.09.2-.1.42-.04.62.22.83.77.72,1.54-.29.35-.4.6-.88.74-1.39,0-.33-.19-.42-.79-.36-.54.05-.54.05-.54-.13,0-.32.78-.91,1.02-.76.06.07.1.16.11.26.06.28.27.36.43.16.16-.29.22-.63.18-.96-.06-.18-.34-.2-.48-.03-.11.12-.3.12-.41,0-.02-.02-.04-.04-.05-.07-.06-.1-.05-.16.07-.28.15-.15.17-.15.62-.04.34.09.68.19,1.01.31.88.35,1.5,1.16,1.6,2.11.18.73.17.78-.22,1.01-.18.11-.98.62-1.75,1.13-2.14,1.39-4.18,2.92-6.11,4.59-.9.78-1.13,1-.77.78.79-.51,2.96-1.72,4.56-2.55,7.97-4.12,16.67-6.66,25.6-7.5,4.99-.44,10.01-.35,14.98.26,10.16,1.33,19.91,4.84,28.58,10.31.7.44,1.29.81,1.3.82-.4-.47-.85-.89-1.32-1.28-4.47-4.01-9.53-7.31-15-9.78-.8-.36-.78-.32-.64-1.07.07-.38.07-.47-.04-.68-.12-.22-.12-.25,0-.55.43-.79.92-1.54,1.48-2.24.44-.46.98-.83,1.58-1.06.5-.21.53-.21.82-.11.35.1.7.18,1.06.23.36.05.71.14,1.06.25.44.15.92.16,1.36.02.69-.1,1.4-.05,2.08.14.32.19.71.18,1.02-.03.27-.16.44-.45.44-.76,0-.31-.11-.39-.65-.44s-.72-.2-.47-.4c.23-.16.47-.31.72-.44.57-.31.85-.66.85-1.06,0-.23-.07-.31-.36-.46-.43-.22-.68-.13-2.18.81-1.57.98-1.82,1.07-2.37.79-.6-.31-.61-.28.58-1.44,1.17-1.14,1-.89,1.95-2.9.2-.44.54-.8.96-1.03.13-.03.23.01.39.18.19.19.33.24.94.35.77.13.75.12,1.33.82.25.3.37.38.6.42.39.06.59.31.93,1.16.17.41.37.81.6,1.18.18.28.41.68.52.91.25.54.48.71.91.71.35,0,.68-.13.92-.38.16-.26-.07-.69-.74-1.33l-.63-.61.03-.39c.04-.5.19-.7.84-1.14.51-.39,1.12-.6,1.76-.62.27-.01.54-.06.8-.15.39-.22.53-.71.31-1.1,0,0,0-.01-.01-.02-.42-.26-.9-.41-1.4-.45-.51.1-.97.34-1.35.69-1.01.78-1.5.91-2.3.64-.88-.3-1.1-.52-.93-.87.09-.19.5-.36,1.18-.5.78-.33,1.15-1.23.82-2.02-.01-.03-.03-.06-.04-.09-.08-.13-.2-.22-.33-.28-.42.13-.82.32-1.18.58-.41.25-.83.48-1.27.68-.31.1-.88-.03-.88-.19.21-.41.52-.77.89-1.05.33-.19.71-.29,1.09-.29.47-.06.94-.15,1.4-.29.44-.19.94-.2,1.39-.03.18.06.28.17.49.6.11.23.24.45.4.65.45.27.97.41,1.5.39.69,0,.86-.09.96-.49.13-.28,0-.61-.28-.74-.04-.02-.09-.03-.13-.04-1.18-.41-1.44-.62-1.44-1.12s.03-.52.59-.52c.35,0,.53.03.59.11.13.15.28.14.64-.05l.3-.16.29.2c.14.1.29.17.46.2.56-.09,1.11-.22,1.65-.38.46-.19.84-.53,1.09-.97.09-.19.14-.39.13-.6-.02-.28-.05-.31-.23-.33-.29.04-.58.13-.83.28-.77.38-1.11.44-1.36.23l-.18-.15.15-.27c.07-.15.19-.27.33-.34.44-.17.85-.4,1.22-.69.26-.18.33-.54.15-.8-.02-.02-.03-.05-.05-.07-.16-.21-.31-.22-.8-.07-.13.04.03-.14.49-.6h0ZM12.87,37.94c.05.1.09.22.1.33-.04.05-.34-.41-.34-.53,0-.21.12-.11.24.19ZM13.53,41.37c-.11.04-.4-.32-.86-1.06-.19-.34-.44-.64-.73-.88l-.36-.26.24-.33c.36-.5.38-.51.74-.3.48.24.81.7.88,1.23.09.36.15.73.17,1.1,0,.29-.02.48-.07.5h0ZM23.39,48.9l-.23.08c-.2.07-.27.06-.57-.12-.52-.32-.95-.77-1.24-1.32-.14-.36-.23-.73-.28-1.11-.13-.95-.32-1.22-.67-.96-.07.08-.19.09-.28.02-.11-.07-.16-.06-.24.06-.16.21-.2.69-.15,1.68.02.5.05.97.05,1.06-.06.3-.14.59-.25.88-.25.73-.35.79-.35.23-.21-1.46-.6-2.89-1.15-4.26-.26-.58-.42-1.2-.47-1.83.02-.53.18-1.04.47-1.48.22-.29.26-.68.09-1-.09-.21-.15-.25-.33-.25s-.22.04-.24.17c-.03.11-.11.2-.23.23-.16.06-.24.04-.42-.09-.11-.09-.24-.14-.38-.16-.12-.01-.24-.07-.33-.15-.24-.22-.45-.13-.55.23-.08.65.06,1.31.41,1.87.37.6.59,1.29.62,2,0,.42-.01.48-.14.48-.43-.12-.82-.36-1.12-.69-.42-.41-.43-.5-.11-.97.08-.11.15-.24.18-.38-.05-.19-.13-.37-.22-.55-.29-.57-.36-1.12-.18-1.32.16-.18.07-.51-.26-.91-.43-.52-.56-.27-.29.55.25.73.19,2.03-.07,1.55-.21-.79-.34-1.59-.4-2.41-.03-.23.01-.46.12-.66.13-.19.14-.19.33-.08.11.06.32.2.46.3.18.15.41.21.63.16.22-.02.43-.08.61-.2l.23-.17.5.2c.3.16.65.2.98.14.26-.03.69-.06.93-.07.57,0,.69.1.95.77.17.49.49.91.91,1.21.2.08.42.13.64.15.95.1,1.59.39,1.59.72,0,.12-.03.14-.17.1-.17-.04-.35-.08-.53-.09-.51-.09-1,.25-1.1.77-.02.1-.02.2,0,.3,0,.49.24.89.94,1.65.83.82,1.3,1.94,1.3,3.11v.56h0ZM24.69,43.42c-.41.4-.51.16-.45-1.02.08-1.36-.08-1.69-.72-1.52-1.1.07-2.18-.32-2.97-1.08-.54-.51-1.21-.85-1.94-.97l-.58-.11-.04-.3c-.03-.24-.01-.32.1-.4.18-.13.18-.36,0-.66-.08-.13-.12-.24-.09-.24s.41.18.84.4c.76.28,1.42.77,1.91,1.41.1.2.24.38.4.54.67.48,1.48.74,2.31.72.14-.04.26-.11.38-.19.08-.07.18-.12.29-.14.17,0,.53.43.82.99.21.33.3.72.27,1.11.04.54-.14,1.07-.5,1.48h0ZM33.65,46.75c-1.4.31-2.87.7-4.24,1.12-.61.18-1.15.35-1.21.38-.08.03-.08,0-.01-.12.73-.75,1.61-1.33,2.59-1.71.87-.4,1.86-.45,2.77-.16.27.08.54.15.81.19.36.05.35.06-.71.29h0ZM71.02,38.41c-.18.57-.33,1.15-.44,1.74,0,.44-.17.85-.46,1.18-.08.07-.63.44-1.24.83-.4.28-.82.51-1.27.71-.21,0-.24-.18-.12-.88.03-.76.4-1.47,1.02-1.93,1.49-1.43,2.1-2.04,2.42-2.43.19-.22.36-.38.39-.36-.06.39-.16.77-.29,1.14h0ZM79.3,30.8c-.21.76-.63,1.44-1.21,1.97-.45.51-.97,1.09-1.16,1.29l-.34.37.05-.63c.03-.34.05-.84.04-1.09-.01-.24.03-.48.11-.7.3-.48.69-.91,1.13-1.27.26-.09.54-.14.82-.16l.61-.05-.05.27h0ZM83.56,28.37c-.18.38-.32.77-.4,1.18-.14,1.41-1.1,2.6-2.45,3.03-.3.07-.6.14-.67.16s-.13.02-.13,0c0-.07.6-1.55.74-1.81.15-.26.34-.5.54-.73.82-.88.91-1.54.27-1.87l-.3-.15v-.65c.03-.27,0-.54-.1-.79-.1-.14-.11-.13-.37.11-.35.42-.57.93-.64,1.47-.1.53-.27.71-.74.79s-.49-.04-.07-.57c.61-.73,1.11-1.55,1.46-2.43.25-.45.39-.96.42-1.47,0-.59-.1-.81-.38-.81-.38,0-.73.56-1.01,1.64-.15.67-.46,1.3-.91,1.82-.23.31-.6.84-.82,1.19s-.49.75-.61.9c-.28.35-.75.68-.9.62-.24-.09-.07-2.01.21-2.45.12-.14.27-.25.44-.32.19-.08.35-.22.46-.4.31-.4.65-.78,1.02-1.12.49-.49,1.14-1.17,1.43-1.52.56-.67.86-.88,1.29-.88.22-.01.43-.11.58-.27.26-.25.59-.42.95-.47.13,0,.15.03.11.17-.14.71-.2,1.44-.18,2.16,0,.59.15,1.16.46,1.66.61,1.31.59,1.24.3,1.8h0Z"/>
  <path class="cls-1" d="M68.36,33.41c-.69-.79-.81-1.29-.87-3.53,0-.64-.05-1.28-.15-1.91-.06-.26-.15-.81-.19-1.21-.3-2.99-1.54-5.73-3.97-8.83-.27-.34-.51-.7-.73-1.07-.47-.76-1.03-1.45-1.68-2.05-.65-.69-.79-.75-.62-.31.07.18.06.18-.07.12-.33-.29-.65-.6-.94-.93-.72-.77-.99-.96-.77-.56.04.08.06.16.03.18-.54-.39-1.04-.85-1.47-1.37-.07-.23-.18-.06-.14.21.03.14.03.25,0,.25-.26-.19-.52-.4-.76-.63-.24-.23-.5-.44-.78-.63-.04,0-.05.07-.03.15.06.23-.03.18-.5-.3-.19-.2-.41-.39-.64-.55-.18-.1-.2-.09-.22.06s-.1.09-.66-.44c-.25-.25-.52-.48-.8-.69-.16-.08-.16-.08-.14.15.01.13,0,.25-.05.26-.24-.11-.46-.25-.66-.42-1.8-1.38-1.67-1.29-1.77-1.15-.09.13-.12.11-.42-.16-.43-.4-.91-.76-1.41-1.06-.3-.15-.42-.11-.42.14,0,.19-.25.08-.69-.3-.86-.75-1.67-1.29-1.77-1.18-.03.06-.05.12-.05.18,0,.21-.2.07-.98-.67-.94-.89-1.15-1.04-1.4-.99-.18.04-.26-.01-.65-.44-.17-.24-.4-.42-.68-.53-.17-.05-.33-.14-.46-.25-.59-.5-1.27-.89-2-1.13-.23-.07-.46-.16-.68-.27-.21-.1-.43-.16-.65-.2-.31-.07-.61-.2-.86-.38-.44-.33-.96-.54-1.51-.6-.25-.03-.5-.09-.73-.19-.51-.21-1.12-.25-1.12-.08,0,.05-.07.12-.15.14-.43,0-.87-.04-1.29-.15-.08-.02-1.11-.04-2.29-.03-2.21.01-2.66.06-3.23.35-.42.22-.65.41-.58.48.28.12.58.21.88.28,1.7.36,3.23,1.27,4.36,2.59,2.4,3.02,3.47,6.89,2.97,10.71-.08.77-.34,2.5-.42,2.69-.06.16-.53.12-.86-.08-.87-.72-1.61-1.58-2.18-2.55-1.18-2.05-2.78-3.83-4.69-5.23-.83-.59-1.75-1.01-2.74-1.25-.05.05.21.52.8,1.39,1.12,1.44,1.67,3.25,1.54,5.07-.31,1.92-1.17,3.71-2.48,5.15l-.4.45.69.23c1.08.42,2.25.57,3.4.43.33-.1.68-.06.98.11.51.14.97.41,1.35.77.46.43.57.7.41.95-.1.16-.15.17-.31.11-.37-.14-.71-.07-1.75.36-.57.24-1.13.46-1.23.49-.16.06-.3.14-.44.25-.24.18-.31.19-1.16.21-1.2.02-1.47.16-1.66.85-.04.15-.12.28-.18.28-.21,0-.41.6-.41,1.25-.03.36.04.73.22,1.04.1.21.23.41.39.59.16.15.17.16.03.26s-.13.12.18.45c.18.19.58.54.88.79s.54.49.53.55c-.04.18.13.31.95.73.79.4,1.22.76,1.14.96-.05.13.1.2.84.4.4.05.76.25,1.01.56.25.28.57.49.92.62.56.23.84.44.91.67s.57.31,1.47.26c.45-.02.96-.06,1.14-.09.31-.04.32-.04.19.07-.14.09-.29.16-.44.2-.46.12-.7.22-.7.28.45.21.95.33,1.45.35.68.04,1.37-.08,2-.33l.48-.19.34.17c.19.09.94.38,1.67.65,1.18.48,2.44.71,3.71.68,1.18.07,1.21.08,1.49.3.55.44.57.43-.68.46-.55-.05-1.1.03-1.61.24-.34.14-.71.23-1.08.26-.25.01-.5.06-.75.14-1.21.12-2.43.13-3.64.03-.44-.06-.86-.21-1.24-.43-.23-.13-.48-.23-.74-.3-.08.08.65.77,1.17,1.12,1.34.79,2.79,1.35,4.32,1.65,2.08.54,4.2.91,6.33,1.11.9.09,1.81.09,2.72,0,.91-.06,1.81-.26,2.66-.6l.35-.17.83.18c.87.18,1.75.24,2.64.19,1.53.07,3.07-.12,4.54-.55,1.18-.3,2.33-.69,3.45-1.17.39-.21.83-.31,1.28-.3.32.03.64-.03.92-.18.38-.17.76-.3,1.16-.42,1.89-.55,2.61-1.2,2.76-2.49.03-.26.09-.52.18-.77.17-.43.15-.55-.23-.98ZM65.54,32.1c-.26.13-.57.14-.83.02-.82-.33-1.22-1.26-.88-2.08.09-.23.24-.44.43-.6.56-.47,1.39-.4,1.87.16.07.08.13.17.18.27.43.77.16,1.74-.61,2.17-.05.03-.1.05-.15.07Z"/>
  <path class="cls-1" d="M69.74,29.85v-.96l.43-.31c.17-.13.35-.25.54-.36.16-.06.42.3.42.57-.12.65-.5,1.22-1.05,1.58-.12.06-.21.15-.27.27-.04.11-.07-.17-.07-.8h0Z"/>
  <path class="cls-1" d="M64.64,16.82c-.34-.42-.94-1.09-1.32-1.49-.25-.22-.47-.48-.65-.77.09-.04.18-.05.28-.04.18,0,.34.1.7.46.25.25.49.43.54.41.33-.58.48-1.24.46-1.91.09-1.19.19-1.6.52-2,.28-.34.47-.33.71.01.36.69.43,1.48.21,2.22-.06.26-.23,1.09-.38,1.85s-.31,1.51-.35,1.69l-.08.32-.63-.77h0Z"/>
</svg>