<svg xmlns="http://www.w3.org/2000/svg" xmlns:xlink="http://www.w3.org/1999/xlink" width="108.303" height="79.236" viewBox="0 0 108.303 79.236"><defs><filter id="a" x="0" y="11.153" width="108.303" height="68.083" filterUnits="userSpaceOnUse"><feOffset dy="3" input="SourceAlpha"/><feGaussianBlur stdDeviation="3" result="b"/><feFlood flood-opacity="0.161"/><feComposite operator="in" in2="b"/><feComposite in="SourceGraphic"/></filter><filter id="c" x="0" y="11.153" width="108.303" height="68.083" filterUnits="userSpaceOnUse"><feOffset dy="3" input="SourceAlpha"/><feGaussianBlur stdDeviation="3" result="d"/><feFlood flood-opacity="0.161" result="e"/><feComposite operator="out" in="SourceGraphic" in2="d"/><feComposite operator="in" in="e"/><feComposite operator="in" in2="SourceGraphic"/></filter><filter id="f" x="22.212" y="0" width="64.473" height="58.718" filterUnits="userSpaceOnUse"><feOffset dy="3" input="SourceAlpha"/><feGaussianBlur stdDeviation="3" result="g"/><feFlood flood-opacity="0.161"/><feComposite operator="in" in2="g"/><feComposite in="SourceGraphic"/></filter><filter id="h" x="22.212" y="0" width="64.473" height="58.718" filterUnits="userSpaceOnUse"><feOffset dy="3" input="SourceAlpha"/><feGaussianBlur stdDeviation="3" result="i"/><feFlood flood-color="#003367" flood-opacity="0.161" result="j"/><feComposite operator="out" in="SourceGraphic" in2="i"/><feComposite operator="in" in="j"/><feComposite operator="in" in2="SourceGraphic"/></filter><filter id="k" x="62.669" y="11.235" width="21.518" height="24.345" filterUnits="userSpaceOnUse"><feOffset dy="3" input="SourceAlpha"/><feGaussianBlur stdDeviation="3" result="l"/><feFlood flood-opacity="0.161"/><feComposite operator="in" in2="l"/><feComposite in="SourceGraphic"/></filter><filter id="m" x="62.669" y="11.235" width="21.518" height="24.345" filterUnits="userSpaceOnUse"><feOffset dy="3" input="SourceAlpha"/><feGaussianBlur stdDeviation="3" result="n"/><feFlood flood-opacity="0.161" result="o"/><feComposite operator="out" in="SourceGraphic" in2="n"/><feComposite operator="in" in="o"/><feComposite operator="in" in2="SourceGraphic"/></filter></defs><g transform="translate(9.01 6.002)"><g data-type="innerShadowGroup"><g transform="matrix(1, 0, 0, 1, -9.01, -6)" filter="url(#a)"><path d="M89.024,53.635a3.846,3.846,0,0,0,1.211-1.817c.12-.492.052-.722-.209-.722-.28,0-.5.175-.689.541a6.11,6.11,0,0,1-1.168,1.516,6.307,6.307,0,0,0-1.6,2.2,5.278,5.278,0,0,1-.636,1.088c-.123.086-.363.114-.99.114h-.83l.108-.347c.163-.547.32-.692,1.227-1.138a3.612,3.612,0,0,0,1.838-1.688c.627-1.058.553-2.171-.129-1.912A1.2,1.2,0,0,0,86.4,52.5c0,.237-.1.354-.624.747-.2.151-.344.209-.452.181s-.178,0-.209.08c-.025.065-.065.1-.089.077a2.272,2.272,0,0,1,.271-.655,7,7,0,0,0,.7-1.961,4.854,4.854,0,0,1,.344-1.445A4.11,4.11,0,0,1,87.5,48.273a2.883,2.883,0,0,0,1.476-2.134c0-.744-.2-.762-.849-.08l-.47.5.135-.516a6.422,6.422,0,0,0,.271-1.838.326.326,0,0,0-.224-.234c-.483-.12-.818.314-.928,1.2A4.088,4.088,0,0,1,85.858,47.6c-.492.547-.716.91-.716,1.165a14.993,14.993,0,0,1-.3,1.977c-.046.172-.108.267-.157.24a4.217,4.217,0,0,1-.581-1.46,3.207,3.207,0,0,1,.452-2.752c.412-.781.47-1.171.215-1.427-.289-.289-.461-.215-1.353.572a1.351,1.351,0,0,1-.5.314c-.172,0-.163-.015.732-1.482a4.617,4.617,0,0,0,.836-1.835c.108-.55.052-.781-.224-.922a.649.649,0,0,0-.812.08,1.705,1.705,0,0,0-.556,1.131,2.215,2.215,0,0,1-.326.818,1.682,1.682,0,0,0-.261.572,3.268,3.268,0,0,1-.357.8,5.689,5.689,0,0,1-1.626,1.6,2.647,2.647,0,0,0-.87,1.242,1.379,1.379,0,0,1-.443.658c-.157.123-.286.264-.286.317a.479.479,0,0,1-.166.24,8.325,8.325,0,0,1-1.574.888,2.474,2.474,0,0,1,.421-1.058.883.883,0,0,1,.387-.218,4.974,4.974,0,0,0,1.577-1.6,4.479,4.479,0,0,1,.541-.67,2.922,2.922,0,0,0,.51-1.294.6.6,0,0,0-.535-.6c-.47,0-.981.513-1.574,1.586-.264.483-.953,1.279-1.036,1.2a2.814,2.814,0,0,1,.126-.652,9.083,9.083,0,0,0,.209-1.531c.046-.836.065-.925.224-1.051a.676.676,0,0,1,.713-.148c.28.129.387.1.824-.188a5.241,5.241,0,0,1,.922-.449,1.867,1.867,0,0,1,1.015-.129c.48.049.507.043.744-.172A.57.57,0,0,0,82.3,42.8c0-.495-.163-.624-.849-.679a1.566,1.566,0,0,0-1,.138,2.212,2.212,0,0,1-.467.163c-.015-.015.061-.144.172-.286a2.977,2.977,0,0,0,.513-1.411,1.952,1.952,0,0,1,.489-1.334c.372-.5.464-.858.274-1.048-.246-.246-.658-.006-1.018.6-.126.212-.3.489-.372.615a2.284,2.284,0,0,0-.224.664,2.242,2.242,0,0,1-.655,1.245,3.9,3.9,0,0,0-.492.643,4.636,4.636,0,0,1-1.328,1.313c-.2,0-.111-.612.234-1.51a5,5,0,0,1,1.024-1.869,2.266,2.266,0,0,0,.56-1.528c0-.424-.126-.655-.338-.615a1.828,1.828,0,0,0-.51.584,10.132,10.132,0,0,1-.827,1.061,3.026,3.026,0,0,0-.538.747c-.046.141-.12.252-.163.252-.144,0,.012-.824.271-1.4a3.16,3.16,0,0,0,.4-1.8c-.031-.692-.184-1.027-.492-1.076-.209-.028-.455.372-.458.747a9.347,9.347,0,0,1-.956,3.222.773.773,0,0,0-.114.913,1.761,1.761,0,0,1,.111.566,1.079,1.079,0,0,0,.1.464,4.862,4.862,0,0,1,.264,1.47,2.582,2.582,0,0,1-.784,1.463,3.144,3.144,0,0,1-.467.44,3.706,3.706,0,0,1-.375-1.35,1.635,1.635,0,0,0-.24-.775,1.738,1.738,0,0,1-.083-1.823,2.453,2.453,0,0,0,.129-.75c.006-.744-.264-.895-.713-.4a2.16,2.16,0,0,0-.618,1.543,4.522,4.522,0,0,0,.083,1.245c.108.547.111.63.009.873-.154.366-.151.372.154.652a.735.735,0,0,1,.3.606c.052.581-.12.8-.981,1.267a10.23,10.23,0,0,0-1.058.649,2.109,2.109,0,0,1-.372.252,4.868,4.868,0,0,1-.433-.793,2.7,2.7,0,0,1-.381-1.138c0-.323-.012-.347-.2-.369s-.215-.077-.354-.578a2.791,2.791,0,0,0-.424-.907c-.612-.8-.566-1.393.237-3a6.87,6.87,0,0,0,.849-2.254c.126-1.279-.363-1.294-1.125-.037-.267.446-.307.477-.526.455a.583.583,0,0,0-.354.074c-.1.089-.114.074-.068-.123a7.5,7.5,0,0,0,.089-.812c.034-.526.022-.621-.132-.885-.215-.366-.36-.4-.726-.145-.643.446-.741,1.221-.363,2.862.2.839.215,1.018.148,1.294a5.184,5.184,0,0,1-1.011,1.648l-.4.495.375.556a5.862,5.862,0,0,0,.406.556,5,5,0,0,0,.412-.486l.381-.489.145.209a14.347,14.347,0,0,1,1.42,2.776,5.316,5.316,0,0,0,.289.812,4.917,4.917,0,0,1,.307.781,1.64,1.64,0,0,1-.117,1.623l-.231.47.188.861c.1.47.228,1.141.277,1.485s.1.639.108.652a1.7,1.7,0,0,0,.378-.231,4.986,4.986,0,0,1,1.759-.858c.67-.169.895-.311,1.125-.713a.811.811,0,0,0,.015-.944.649.649,0,0,0-.882-.046,1.812,1.812,0,0,1-.584.221,2.566,2.566,0,0,0-1.3.679c-.178.166-.326.264-.326.221a3.124,3.124,0,0,1,.347-.581c.188-.277.424-.621.523-.762a6.026,6.026,0,0,0,.381-.7,2.5,2.5,0,0,1,.418-.636,5.335,5.335,0,0,1,1.636-.99c1.042-.289,1.224-.415,2.272-1.589.732-.815.879-.95.925-.833.123.311.046.756-.3,1.823a3.726,3.726,0,0,0-.335,2.438,3.073,3.073,0,0,1,0,1.457c-.068.4-.2,1.055-.3,1.448a6.724,6.724,0,0,0-.181,1.989,4.556,4.556,0,0,1-.08,1.316c-.132.083-.4-.1-.606-.427-.184-.283-.2-.363-.2-1.1,0-.44.052-1.288.117-1.888a6.622,6.622,0,0,0-.12-2.856,1.185,1.185,0,0,0-.756-.627.515.515,0,0,0-.274.148c-.188.188-.194.6-.025,1.571a4.332,4.332,0,0,1,0,1.771,7.988,7.988,0,0,0-.046,2.423c.043.218.108.63.151.913a4.744,4.744,0,0,0,.477,1.368,8.423,8.423,0,0,1,.824,2.985,5.667,5.667,0,0,1-.9,3.127c-.627,1.276-.962,1.728-1.334,1.8-.166.034-.181.018-.145-.157a13.2,13.2,0,0,0,.228-2.555,8.029,8.029,0,0,1,.129-1.66,9.024,9.024,0,0,1,.633-1.214,6.132,6.132,0,0,0,.526-1.005.634.634,0,0,0-.489-.51c-.3,0-.433.114-.75.649s-.495.732-.55.627a4.863,4.863,0,0,1,.1-.833,10.8,10.8,0,0,0,.138-1.706c0-.83-.012-.95-.148-1.125-.2-.252-.307-.243-.544.034-.184.221-.191.255-.191,1.31a4.575,4.575,0,0,1-.166,1.682c-.1.1-.3-.12-.44-.513a2.059,2.059,0,0,0-.538-.827,1.526,1.526,0,0,1-.486-.775l-.111-.4-.055.6-.055.593.267.283a3.246,3.246,0,0,1,.895,3.366,5.5,5.5,0,0,1-2.715,2.835,11.107,11.107,0,0,0-1.079.7,8.181,8.181,0,0,0-.824,1.845c-.08.3-.218,1.018-.3,1.586-.252,1.706-.246,1.7-.556.941a4.368,4.368,0,0,1,.212-3.36c.138-.277.212-.486.166-.467-.824.35-1.651.67-2.333.895a2.431,2.431,0,0,0-1,.464c-.135.163-.191.178-.486.135a2.9,2.9,0,0,0-1.082.132c-.415.1-.9.206-1.088.234-.372.055-.477.178-.477.575,0,.215.043.283.274.424a1.168,1.168,0,0,0,.972.111c.166-.058.175-.049.132.148-.267,1.184-.175,1.251,1.261.947a.833.833,0,0,0,.354-.329c.209-.338.446-.387.664-.144.1.111.141.283.154.646a2.477,2.477,0,0,0,.132.769c.151.35.148.566-.006.735s-.341.172-.922-.012a3.238,3.238,0,0,0-.744-.144.38.38,0,0,0-.424.237c-.314.516-.126,1,.492,1.276a2.09,2.09,0,0,0,.59.181,3.148,3.148,0,0,1,1.273.652,2.205,2.205,0,0,1,.129.9c-.025,0-.271-.086-.544-.188-.849-.323-3.293-1.051-4.658-1.4a51.281,51.281,0,0,0-13.109-1.6,50,50,0,0,0-8.654.676c-.741.12-1.371.218-1.4.218-.1,0-.058-.692.049-.944.157-.372.04-.437-.51-.286q-.738.208-.738-.166A10.857,10.857,0,0,1,36.2,68.014c.956-.719,1.125-.907,1.125-1.251,0-.292.034-.274-.944-.495-.879-.2-.741-.267-1.414.756A11.535,11.535,0,0,1,31.312,70.4a1.429,1.429,0,0,1-1.525-.015,1.819,1.819,0,0,1-.452-.461.4.4,0,0,1-.046-.467,1.976,1.976,0,0,1,1.162-.827c.271-.1.784-.292,1.141-.421a4.835,4.835,0,0,0,2.6-2.072c.181-.335.184-.363.061-.406a6.063,6.063,0,0,1-1.291-.655,2.922,2.922,0,0,0-.394-.258,3.193,3.193,0,0,0-.3.523,2.961,2.961,0,0,1-1.122,1.3.6.6,0,0,1-.83-.381,1.681,1.681,0,0,1,.1-1.125,5.357,5.357,0,0,1,1.1-1.088l.206-.148-.267-.443a3.514,3.514,0,0,1-.311-.615c-.04-.163-.052-.157-.2.111a.821.821,0,0,1-.369.354c-.184.065-.231.049-.39-.135a.428.428,0,0,1-.129-.443.774.774,0,0,1,.563-.6c.2-.043.144-.083-.679-.483A6.43,6.43,0,0,0,28.9,61.2a.981.981,0,0,0-.692.418,1.637,1.637,0,0,0,.018,1.322c.08.16.28.538.449.842a3.787,3.787,0,0,1,.381,2.89c-.151.593-.563.535-1.07-.151a1.379,1.379,0,0,0-.258-.3,1.49,1.49,0,0,0-.243.326,3.346,3.346,0,0,1-1.03,1.073c-.258,0-.3-.267-.194-1.211.058-.489.1-1.34.1-1.888,0-.87-.018-1.03-.151-1.254-.206-.35-.5-.39-.652-.086a.5.5,0,0,1-.695.218c-.255-.123-.286-.35-.1-.744a1.8,1.8,0,0,0,.154-1.27.893.893,0,0,0-.738-.7c-.366,0-.443.154-.443.91s-.123,1.116-.449,1.3a.515.515,0,0,1-.726-.307,2.955,2.955,0,0,1,.332-2.026,1.639,1.639,0,0,0,.144-1.383c-.172-.6-.372-.778-.876-.778h-.4l-.151-.35a7.61,7.61,0,0,1-.267-.762,2.321,2.321,0,0,0-.36-.7,2.8,2.8,0,0,1-.8-2.361c.015-1.141.015-1.144-.778-.941-.234.058-.3-.117-.39-1.119-.163-1.648-.44-2.619-.766-2.681a.526.526,0,0,0-.578.249.283.283,0,0,1-.249.181c-.384,0-.378-.842.012-2.075A3.268,3.268,0,0,1,19.426,45.6a3.878,3.878,0,0,0,.87-.526,2.228,2.228,0,0,0,.427-1.765c-.077-.234-.108-.255-.372-.255-.424,0-.836.427-1.005,1.042-.132.47-.341.7-.566.612-.4-.151-.015-1.091.766-1.888a1.866,1.866,0,0,1,.987-.643,3.568,3.568,0,0,1,.683-.157.948.948,0,0,0,.689-.363c.132-.249.083-.452-.3-1.291-.489-1.076-.464-1.036-.679-1.061-.264-.031-.618.357-1.242,1.362-.283.455-.741,1.138-1.018,1.516-.67.913-.747,1.076-.818,1.78-.049.483-.092.621-.224.729-.2.163-.289.166-.5.018-.406-.286-.332-.944.2-1.759a2.315,2.315,0,0,1,.984-.968,1.531,1.531,0,0,0,.5-.427.872.872,0,0,0-.759-1.454,1.684,1.684,0,0,0-1.282.683,1.342,1.342,0,0,0-.286,1.823c.32.458.2.953-.335,1.442-.332.3-.7.347-.907.123-.237-.264-.28-.59-.184-1.457s.058-1.211-.111-1.211a1.152,1.152,0,0,0-.4.323.925.925,0,0,1-.643.375c-.387.058-.63.252-.63.5,0,.563.962,1.7,1.882,2.229.892.513,1.254,1,1.073,1.433-.065.154-.188.224-.621.357-.922.28-1.6.855-1.6,1.362,0,.467.609,1.239,1.513,1.928.415.311.523.433.541.615s-.031.267-.314.5c-.636.52-.415.888,1.147,1.931a6.893,6.893,0,0,1,1.027.772.663.663,0,0,1-.151.772c-.44.553-.2,1.048.769,1.617a2.16,2.16,0,0,1,.486.338c0,.071-.267.144-.523.148a.515.515,0,0,0-.326.148c-.323.36.191.71,1.4.953.932.188,1.128.372.913.849-.191.415-.572.264-.839-.329-.157-.344-.43-.406-.56-.126a1.452,1.452,0,0,1-.67.51c-.237.1-.286.332-.264,1.27.018.812,0,.932-.12,1.07-.2.221-.24.2-.206-.117a15.551,15.551,0,0,0-.855-3.588c-.234-.4-.7-.347-.922.1l-.114.234-.129-.2a2.37,2.37,0,0,1,.234-2.121c.43-.855.1-1.39-.855-1.39-.578,0-.646.111-.526.879.092.6.031.818-.231.818a1.284,1.284,0,0,1-.793-.569c-.283-.409-.271-.8.061-2.088a6.022,6.022,0,0,0,.384-2.447c-.086-.387-.184-.461-.747-.572-.584-.114-.861-.36-.947-.833-.08-.44-.252-.707-.495-.769-.326-.08-.516.077-.812.673a2.351,2.351,0,0,0-.311,1.177,1.715,1.715,0,0,0,.5,1.553,2.008,2.008,0,0,1,.495,2.214c-.354.63-.643.36-.778-.732-.111-.882-.363-1.036-.959-.581a1.339,1.339,0,0,0-.307,1.842,1.716,1.716,0,0,1,.221.541,1,1,0,0,1-.261.44,1.139,1.139,0,0,0,.071,1.74,2.719,2.719,0,0,0,1.823.612,3.2,3.2,0,0,1,1.055.231,4.711,4.711,0,0,1,1.411,1.26l.267.363-.344.483a1.713,1.713,0,0,1-.437.48,2.572,2.572,0,0,1-.833-.6,3.782,3.782,0,0,1-.418-.7c-.258-.529-.615-.913-.852-.913s-.516.292-.747.744c-.375.744-.24,1.171.412,1.3.673.141.569.867-.206,1.427a1.614,1.614,0,0,1-.35.215c-.031,0-.071-.148-.092-.332-.049-.449-.224-.7-.489-.7a.533.533,0,0,0-.341.148.3.3,0,0,1-.492.018,7.217,7.217,0,0,1-.455-1.144c-.624-1.848-1.091-2.638-1.556-2.638a.484.484,0,0,0-.495.4.309.309,0,0,1-.39.243c-.212-.08-.354-.566-.39-1.34a4.111,4.111,0,0,1,1.408-3.7c1.07-.805,1.242-1.076,1.239-1.974,0-.679-.16-1.187-.394-1.261a.772.772,0,0,0-.753.4A1.626,1.626,0,0,0,7,51.341c0,.461-.129.741-.357.775-.44.065-.492-.406-.16-1.4a2.975,2.975,0,0,1,1.872-2.088c.7-.332.858-.5.858-.873,0-.2-.1-.357-.873-1.344-.535-.686-.636-.781-.809-.759-.3.034-.6.541-.968,1.648-.178.526-.526,1.42-.772,1.989L5.34,50.321v1c0,1.11-.046,1.248-.418,1.248-.464,0-.793-.649-.652-1.285a7.065,7.065,0,0,1,.6-1.568,1.106,1.106,0,0,1,.354-.354,2.126,2.126,0,0,0,.67-1.208.958.958,0,0,0-.907-.938c-.836-.154-1.971,1.045-1.971,2.084a1.4,1.4,0,0,0,.51,1.162c.267.261.3.329.3.633a1.788,1.788,0,0,1-.221.79c-.184.369-.277.467-.516.563a.573.573,0,0,1-.812-.264,3.207,3.207,0,0,1-.363-1.476,4.884,4.884,0,0,0-.166-.907c-.141-.311-.36-.212-.615.28-.191.363-.261.437-.507.5a.779.779,0,0,0-.636.646A1.925,1.925,0,0,0,.731,52.3a7.347,7.347,0,0,0,2.026,1.051c1,.286,1.519.762,1.4,1.282-.034.138-.169.261-.5.443a3.462,3.462,0,0,0-1.454,1.479.937.937,0,0,0,.181.932A6.542,6.542,0,0,0,4.34,58.775c.91.387.984.6.437,1.233s-.108,1.042,2.014,1.823c1.273.47,1.494.729,1.168,1.365a1.018,1.018,0,0,0-.071.889,2.93,2.93,0,0,0,1.344.735,1.658,1.658,0,0,1,.578.258c0,.043-.166.126-.375.191-.418.126-.513.224-.513.532,0,.354.354.455,1.645.464,1.011.009,1.107.022,1.251.166a.678.678,0,0,1,.058.781c-.181.218-.424.135-.845-.289-.433-.44-.575-.461-.7-.117a1.231,1.231,0,0,1-.261.4c-.418.421-.163.778.762,1.061,1.042.317,1.423.578,1.66,1.147.188.446.151.753-.114.975-.283.24-.455.24-.932,0A4.724,4.724,0,0,1,9.432,67.66a3.189,3.189,0,0,0-1.915-2.355,1.165,1.165,0,0,1-.781-.75c-.123-.32-.12-.4.012-1.691.04-.384.025-.47-.114-.646s-.209-.2-.6-.2a1.738,1.738,0,0,0-.584.077c-.188.1-.184.4,0,.882s.184.566,0,.667c-.123.065-.221.049-.495-.089-.664-.332-.769-.673-.7-2.312.046-1.217-.04-1.869-.28-2.109-.108-.108-.246-.141-.6-.141-.569,0-.922-.184-.99-.52-.086-.437-.673-.738-.935-.477a2.872,2.872,0,0,0-.148,2.287,2.179,2.179,0,0,0,.787.8,2.356,2.356,0,0,1,.719,1.1c.1.369-.055.889-.277.919-.184.028-.354-.212-.547-.781-.286-.833-.587-.895-1.055-.206a1.248,1.248,0,0,0,.3,1.645.585.585,0,0,1,.025.8,1.059,1.059,0,0,0,.495,1.485c.289.145.523.154,2.051.092a1.558,1.558,0,0,1,1.07.181C5.788,66.8,6.382,67.4,6.3,67.771a.59.59,0,0,1-.55.443,2.331,2.331,0,0,1-1.411-.852c-.35-.461-.575-.624-.864-.624-.271,0-.44.188-.572.633-.234.772-.071,1.138.507,1.138.433,0,.6.181.547.593-.043.3-.08.366-.775,1.174-.55.646-.507,1.008.144,1.187a.512.512,0,0,1,.338.252.9.9,0,0,0,.277.307c.181.12.2.117.39-.025a2.781,2.781,0,0,0,.726-1.239c.415-1.091.861-1.808,1.131-1.808.166,0,.221.144.221.566s-.074.55-.489,1c-.357.384-.418.667-.172.8a.326.326,0,0,0,.344-.015c.2-.1.234-.141.433-.593.129-.3.289-.347.55-.184a.277.277,0,0,0,.424-.212,3.668,3.668,0,0,0-.354-.907c-.384-.787-.443-1.128-.206-1.171a6.168,6.168,0,0,1,1.47,1.912c.9,1.466,1.688,1.866,3.9,1.986,1.3.071,1.645.135,1.946.372.338.264.234.759-.261,1.221-.5.477-1.094.5-2.25.1a9.837,9.837,0,0,1-3.425-1.925c-.67-.572-.953-.707-1.217-.587a.485.485,0,0,0-.231.209,1.764,1.764,0,0,1-.335.4c-.249.237-.283.307-.261.556s.052.3.427.483c.224.108.7.3,1.07.43s1.073.43,1.574.667c.861.409.907.443.885.633-.028.234-.191.3-.747.314-.437.009-.52.151-.252.437a.822.822,0,0,1,.212.455c.025.234.049.261.267.283.246.025.529-.111,1.454-.679a4.035,4.035,0,0,1,1.408-.523.519.519,0,0,1,.621.507,1.938,1.938,0,0,1-.762,1.159,2.554,2.554,0,0,1-1.3.433,3.972,3.972,0,0,1-.778-.138c-1.045-.286-1.706-.261-1.974.071a1.141,1.141,0,0,0-.018,1.027c.166.138.575.043.953-.215.354-.246.523-.274.815-.141.274.126.24.378-.144,1.018-.47.784-.437,1.045.172,1.3.646.267,1.045-.071,1.045-.885a3.453,3.453,0,0,1,.077-.719c.148-.532.839-.864,1.033-.5.061.114.055.231-.034.492a.905.905,0,0,0-.037.624c.221.827.775.719,1.54-.292a3.541,3.541,0,0,0,.741-1.393c0-.329-.191-.415-.787-.36-.538.049-.541.049-.541-.132,0-.32.784-.907,1.021-.762a.523.523,0,0,1,.111.258c.055.28.267.363.427.163a1.54,1.54,0,0,0,.175-.965c-.055-.178-.344-.2-.483-.034a.293.293,0,0,1-.467-.058c-.065-.1-.049-.16.074-.28.148-.148.169-.151.624-.043a10.489,10.489,0,0,1,1.005.307,2.557,2.557,0,0,1,1.6,2.106c.181.726.169.781-.221,1.011-.184.111-.975.618-1.752,1.128a56.547,56.547,0,0,0-6.115,4.59c-.9.781-1.128,1-.775.775.787-.507,2.958-1.725,4.556-2.552a70.091,70.091,0,0,1,25.6-7.5,71.38,71.38,0,0,1,14.978.258A70.821,70.821,0,0,1,82.135,85.544c.7.443,1.285.812,1.3.815a10.06,10.06,0,0,0-1.325-1.279,58.672,58.672,0,0,0-15-9.783c-.8-.36-.778-.32-.639-1.073.071-.378.065-.47-.043-.676-.12-.221-.12-.252,0-.553a15.317,15.317,0,0,1,1.476-2.244,4.445,4.445,0,0,1,1.58-1.061c.495-.209.526-.215.824-.111a8.016,8.016,0,0,0,1.058.228,5.843,5.843,0,0,1,1.055.252,2.192,2.192,0,0,0,1.362.022,5.183,5.183,0,0,1,2.078.135.945.945,0,0,0,1.018-.031.876.876,0,0,0,.437-.762c0-.307-.114-.387-.652-.443s-.716-.2-.47-.4a6.76,6.76,0,0,1,.716-.437c.575-.314.852-.658.849-1.055,0-.228-.068-.311-.363-.461-.427-.221-.676-.129-2.18.812-1.568.981-1.823,1.067-2.373.787-.6-.307-.609-.28.581-1.439,1.174-1.144,1.005-.892,1.949-2.905a2.279,2.279,0,0,1,.956-1.03c.129-.031.228.015.394.178.188.188.332.243.941.354.769.135.747.123,1.328.821.246.3.366.381.6.418.39.061.59.307.928,1.159a8.477,8.477,0,0,0,.6,1.184c.175.277.409.683.516.907.252.535.477.707.91.707a1.224,1.224,0,0,0,.922-.381c.163-.264-.071-.689-.738-1.331l-.63-.612.031-.39c.04-.495.191-.7.836-1.138a3.026,3.026,0,0,1,1.759-.621,3.021,3.021,0,0,0,.8-.151.811.811,0,0,0,.3-1.122,3.13,3.13,0,0,0-1.4-.449,2.667,2.667,0,0,0-1.347.695c-1.008.775-1.5.913-2.3.639-.876-.3-1.1-.516-.932-.873.092-.191.5-.363,1.181-.5a1.54,1.54,0,0,0,.775-2.112.67.67,0,0,0-.335-.277,4.153,4.153,0,0,0-1.177.575,10.932,10.932,0,0,1-1.273.676c-.311.1-.882-.028-.882-.191a2.97,2.97,0,0,1,.892-1.048,2.225,2.225,0,0,1,1.088-.289,8.788,8.788,0,0,0,1.4-.286,1.833,1.833,0,0,1,1.39-.031c.184.055.277.169.492.6a3.163,3.163,0,0,0,.4.652,2.73,2.73,0,0,0,1.5.387c.689,0,.858-.086.965-.489a.559.559,0,0,0-.412-.781c-1.177-.412-1.439-.615-1.439-1.119s.034-.516.59-.516c.354,0,.526.034.59.111.126.154.28.141.639-.052L86.531,58l.286.2a1.105,1.105,0,0,0,.458.2,12.746,12.746,0,0,0,1.654-.378,2.251,2.251,0,0,0,1.091-.968,1.162,1.162,0,0,0,.126-.6c-.022-.277-.046-.311-.231-.332a2.189,2.189,0,0,0-.83.283c-.769.384-1.11.44-1.362.234l-.184-.148.148-.274a.817.817,0,0,1,.332-.344,4.627,4.627,0,0,0,1.224-.695.579.579,0,0,0,.1-.873c-.163-.206-.314-.221-.8-.074-.126.04.025-.144.489-.6ZM12.856,63.061a1.007,1.007,0,0,1,.1.332c-.043.046-.344-.412-.344-.526C12.61,62.655,12.736,62.754,12.856,63.061Zm.667,3.434c-.114.04-.4-.32-.855-1.061a3.044,3.044,0,0,0-.735-.882l-.357-.261.237-.329c.36-.5.381-.51.741-.3a1.612,1.612,0,0,1,.876,1.233,5.693,5.693,0,0,1,.169,1.1C13.6,66.283,13.576,66.477,13.524,66.5Zm9.86,7.532-.234.083c-.2.071-.274.055-.569-.117a3.411,3.411,0,0,1-1.236-1.316,4.664,4.664,0,0,1-.283-1.11c-.132-.95-.32-1.221-.667-.965a.2.2,0,0,1-.277.018c-.111-.068-.157-.055-.24.055-.16.215-.2.695-.154,1.685.025.5.046.975.049,1.055a4.864,4.864,0,0,1-.249.876c-.249.726-.347.79-.347.234a18.678,18.678,0,0,0-1.153-4.264,5.313,5.313,0,0,1-.47-1.829,2.9,2.9,0,0,1,.473-1.476.921.921,0,0,0,.086-1c-.089-.209-.148-.255-.329-.255s-.224.037-.243.166a.316.316,0,0,1-.228.234c-.163.058-.243.043-.421-.089a.822.822,0,0,0-.381-.163.575.575,0,0,1-.329-.154c-.237-.221-.449-.132-.547.231a2.888,2.888,0,0,0,.409,1.872,4.226,4.226,0,0,1,.624,2c0,.421-.015.483-.135.483a2.411,2.411,0,0,1-1.122-.695c-.418-.406-.43-.5-.108-.972a1.134,1.134,0,0,0,.184-.375,2.532,2.532,0,0,0-.224-.547c-.289-.572-.363-1.119-.184-1.319.163-.181.071-.507-.258-.91-.433-.523-.563-.271-.286.553.246.729.188,2.032-.071,1.553a13.094,13.094,0,0,1-.4-2.407,1.12,1.12,0,0,1,.117-.661c.126-.191.138-.194.332-.083.111.061.317.2.458.3a.749.749,0,0,0,.633.16,1.319,1.319,0,0,0,.609-.2l.234-.166.495.2a1.487,1.487,0,0,0,.981.135c.264-.031.686-.061.935-.065.566,0,.689.1.947.769a2.487,2.487,0,0,0,.913,1.214,2.4,2.4,0,0,0,.636.154c.95.1,1.586.394,1.586.716,0,.123-.028.138-.166.1a3.4,3.4,0,0,0-.532-.092.945.945,0,0,0-1.1,1.064c.006.489.237.895.941,1.648a4.363,4.363,0,0,1,1.3,3.111v.563Zm1.3-5.482c-.406.4-.51.16-.446-1.021.077-1.365-.077-1.688-.722-1.516a3.943,3.943,0,0,1-2.973-1.079,3.691,3.691,0,0,0-1.943-.975l-.584-.114-.04-.3c-.034-.243-.015-.32.1-.4.181-.129.181-.36-.006-.664-.08-.132-.12-.24-.089-.24s.409.178.839.4a4.2,4.2,0,0,1,1.906,1.411,2.154,2.154,0,0,0,.4.535,3.85,3.85,0,0,0,2.306.722,1.228,1.228,0,0,0,.378-.194.663.663,0,0,1,.289-.141c.172,0,.526.43.818.993a1.781,1.781,0,0,1,.267,1.11,1.968,1.968,0,0,1-.5,1.476Zm8.953,3.323c-1.4.311-2.871.7-4.24,1.119-.609.184-1.153.354-1.208.375-.08.031-.083.009-.015-.117a7.154,7.154,0,0,1,2.589-1.706,3.826,3.826,0,0,1,2.773-.157,6.888,6.888,0,0,0,.809.194c.357.052.35.055-.707.292Zm37.378-8.335a17.029,17.029,0,0,0-.443,1.737,1.872,1.872,0,0,1-.455,1.184c-.077.068-.633.44-1.242.83a7.338,7.338,0,0,1-1.27.707c-.212,0-.237-.181-.12-.879A2.545,2.545,0,0,1,68.5,65.182c1.488-1.433,2.1-2.041,2.423-2.429.188-.221.363-.384.387-.357A5.912,5.912,0,0,1,71.015,63.534Zm8.276-7.615a4.117,4.117,0,0,1-1.214,1.965c-.449.507-.972,1.088-1.159,1.291l-.341.369.049-.627c.028-.344.046-.836.04-1.091a1.642,1.642,0,0,1,.114-.7,5.092,5.092,0,0,1,1.131-1.267,3.084,3.084,0,0,1,.815-.157l.612-.049-.046.271Zm4.258-2.429a4.762,4.762,0,0,0-.4,1.184A3.531,3.531,0,0,1,80.7,57.7c-.3.068-.6.141-.67.16s-.129.022-.129.006c0-.068.6-1.553.735-1.814a4.084,4.084,0,0,1,.544-.726c.815-.882.91-1.543.274-1.866l-.3-.154v-.649a1.634,1.634,0,0,0-.1-.79c-.1-.138-.114-.135-.369.111a2.769,2.769,0,0,0-.636,1.466c-.1.529-.274.71-.744.79s-.486-.037-.071-.566a8.847,8.847,0,0,0,1.457-2.432,3.339,3.339,0,0,0,.415-1.473c0-.593-.1-.809-.378-.809-.381,0-.729.563-1.015,1.639a4.242,4.242,0,0,1-.913,1.823c-.234.307-.6.842-.815,1.187s-.492.75-.612.9c-.28.35-.753.679-.9.624-.24-.092-.074-2.011.212-2.447a1.293,1.293,0,0,1,.443-.32.962.962,0,0,0,.458-.4,9.163,9.163,0,0,1,1.024-1.125c.492-.486,1.138-1.171,1.43-1.522.556-.67.858-.876,1.288-.876a.868.868,0,0,0,.578-.267,1.724,1.724,0,0,1,.953-.47c.129,0,.151.034.114.166a9.4,9.4,0,0,0-.178,2.164,3.094,3.094,0,0,0,.458,1.66c.606,1.307.593,1.236.3,1.8Z" transform="translate(9.01 -19.12)" fill="#fff"/></g><g transform="matrix(1, 0, 0, 1, -9.01, -6)" filter="url(#c)"><path d="M89.024,53.635a3.846,3.846,0,0,0,1.211-1.817c.12-.492.052-.722-.209-.722-.28,0-.5.175-.689.541a6.11,6.11,0,0,1-1.168,1.516,6.307,6.307,0,0,0-1.6,2.2,5.278,5.278,0,0,1-.636,1.088c-.123.086-.363.114-.99.114h-.83l.108-.347c.163-.547.32-.692,1.227-1.138a3.612,3.612,0,0,0,1.838-1.688c.627-1.058.553-2.171-.129-1.912A1.2,1.2,0,0,0,86.4,52.5c0,.237-.1.354-.624.747-.2.151-.344.209-.452.181s-.178,0-.209.08c-.025.065-.065.1-.089.077a2.272,2.272,0,0,1,.271-.655,7,7,0,0,0,.7-1.961,4.854,4.854,0,0,1,.344-1.445A4.11,4.11,0,0,1,87.5,48.273a2.883,2.883,0,0,0,1.476-2.134c0-.744-.2-.762-.849-.08l-.47.5.135-.516a6.422,6.422,0,0,0,.271-1.838.326.326,0,0,0-.224-.234c-.483-.12-.818.314-.928,1.2A4.088,4.088,0,0,1,85.858,47.6c-.492.547-.716.91-.716,1.165a14.993,14.993,0,0,1-.3,1.977c-.046.172-.108.267-.157.24a4.217,4.217,0,0,1-.581-1.46,3.207,3.207,0,0,1,.452-2.752c.412-.781.47-1.171.215-1.427-.289-.289-.461-.215-1.353.572a1.351,1.351,0,0,1-.5.314c-.172,0-.163-.015.732-1.482a4.617,4.617,0,0,0,.836-1.835c.108-.55.052-.781-.224-.922a.649.649,0,0,0-.812.08,1.705,1.705,0,0,0-.556,1.131,2.215,2.215,0,0,1-.326.818,1.682,1.682,0,0,0-.261.572,3.268,3.268,0,0,1-.357.8,5.689,5.689,0,0,1-1.626,1.6,2.647,2.647,0,0,0-.87,1.242,1.379,1.379,0,0,1-.443.658c-.157.123-.286.264-.286.317a.479.479,0,0,1-.166.24,8.325,8.325,0,0,1-1.574.888,2.474,2.474,0,0,1,.421-1.058.883.883,0,0,1,.387-.218,4.974,4.974,0,0,0,1.577-1.6,4.479,4.479,0,0,1,.541-.67,2.922,2.922,0,0,0,.51-1.294.6.6,0,0,0-.535-.6c-.47,0-.981.513-1.574,1.586-.264.483-.953,1.279-1.036,1.2a2.814,2.814,0,0,1,.126-.652,9.083,9.083,0,0,0,.209-1.531c.046-.836.065-.925.224-1.051a.676.676,0,0,1,.713-.148c.28.129.387.1.824-.188a5.241,5.241,0,0,1,.922-.449,1.867,1.867,0,0,1,1.015-.129c.48.049.507.043.744-.172A.57.57,0,0,0,82.3,42.8c0-.495-.163-.624-.849-.679a1.566,1.566,0,0,0-1,.138,2.212,2.212,0,0,1-.467.163c-.015-.015.061-.144.172-.286a2.977,2.977,0,0,0,.513-1.411,1.952,1.952,0,0,1,.489-1.334c.372-.5.464-.858.274-1.048-.246-.246-.658-.006-1.018.6-.126.212-.3.489-.372.615a2.284,2.284,0,0,0-.224.664,2.242,2.242,0,0,1-.655,1.245,3.9,3.9,0,0,0-.492.643,4.636,4.636,0,0,1-1.328,1.313c-.2,0-.111-.612.234-1.51a5,5,0,0,1,1.024-1.869,2.266,2.266,0,0,0,.56-1.528c0-.424-.126-.655-.338-.615a1.828,1.828,0,0,0-.51.584,10.132,10.132,0,0,1-.827,1.061,3.026,3.026,0,0,0-.538.747c-.046.141-.12.252-.163.252-.144,0,.012-.824.271-1.4a3.16,3.16,0,0,0,.4-1.8c-.031-.692-.184-1.027-.492-1.076-.209-.028-.455.372-.458.747a9.347,9.347,0,0,1-.956,3.222.773.773,0,0,0-.114.913,1.761,1.761,0,0,1,.111.566,1.079,1.079,0,0,0,.1.464,4.862,4.862,0,0,1,.264,1.47,2.582,2.582,0,0,1-.784,1.463,3.144,3.144,0,0,1-.467.44,3.706,3.706,0,0,1-.375-1.35,1.635,1.635,0,0,0-.24-.775,1.738,1.738,0,0,1-.083-1.823,2.453,2.453,0,0,0,.129-.75c.006-.744-.264-.895-.713-.4a2.16,2.16,0,0,0-.618,1.543,4.522,4.522,0,0,0,.083,1.245c.108.547.111.63.009.873-.154.366-.151.372.154.652a.735.735,0,0,1,.3.606c.052.581-.12.8-.981,1.267a10.23,10.23,0,0,0-1.058.649,2.109,2.109,0,0,1-.372.252,4.868,4.868,0,0,1-.433-.793,2.7,2.7,0,0,1-.381-1.138c0-.323-.012-.347-.2-.369s-.215-.077-.354-.578a2.791,2.791,0,0,0-.424-.907c-.612-.8-.566-1.393.237-3a6.87,6.87,0,0,0,.849-2.254c.126-1.279-.363-1.294-1.125-.037-.267.446-.307.477-.526.455a.583.583,0,0,0-.354.074c-.1.089-.114.074-.068-.123a7.5,7.5,0,0,0,.089-.812c.034-.526.022-.621-.132-.885-.215-.366-.36-.4-.726-.145-.643.446-.741,1.221-.363,2.862.2.839.215,1.018.148,1.294a5.184,5.184,0,0,1-1.011,1.648l-.4.495.375.556a5.862,5.862,0,0,0,.406.556,5,5,0,0,0,.412-.486l.381-.489.145.209a14.347,14.347,0,0,1,1.42,2.776,5.316,5.316,0,0,0,.289.812,4.917,4.917,0,0,1,.307.781,1.64,1.64,0,0,1-.117,1.623l-.231.47.188.861c.1.47.228,1.141.277,1.485s.1.639.108.652a1.7,1.7,0,0,0,.378-.231,4.986,4.986,0,0,1,1.759-.858c.67-.169.895-.311,1.125-.713a.811.811,0,0,0,.015-.944.649.649,0,0,0-.882-.046,1.812,1.812,0,0,1-.584.221,2.566,2.566,0,0,0-1.3.679c-.178.166-.326.264-.326.221a3.124,3.124,0,0,1,.347-.581c.188-.277.424-.621.523-.762a6.026,6.026,0,0,0,.381-.7,2.5,2.5,0,0,1,.418-.636,5.335,5.335,0,0,1,1.636-.99c1.042-.289,1.224-.415,2.272-1.589.732-.815.879-.95.925-.833.123.311.046.756-.3,1.823a3.726,3.726,0,0,0-.335,2.438,3.073,3.073,0,0,1,0,1.457c-.068.4-.2,1.055-.3,1.448a6.724,6.724,0,0,0-.181,1.989,4.556,4.556,0,0,1-.08,1.316c-.132.083-.4-.1-.606-.427-.184-.283-.2-.363-.2-1.1,0-.44.052-1.288.117-1.888a6.622,6.622,0,0,0-.12-2.856,1.185,1.185,0,0,0-.756-.627.515.515,0,0,0-.274.148c-.188.188-.194.6-.025,1.571a4.332,4.332,0,0,1,0,1.771,7.988,7.988,0,0,0-.046,2.423c.043.218.108.63.151.913a4.744,4.744,0,0,0,.477,1.368,8.423,8.423,0,0,1,.824,2.985,5.667,5.667,0,0,1-.9,3.127c-.627,1.276-.962,1.728-1.334,1.8-.166.034-.181.018-.145-.157a13.2,13.2,0,0,0,.228-2.555,8.029,8.029,0,0,1,.129-1.66,9.024,9.024,0,0,1,.633-1.214,6.132,6.132,0,0,0,.526-1.005.634.634,0,0,0-.489-.51c-.3,0-.433.114-.75.649s-.495.732-.55.627a4.863,4.863,0,0,1,.1-.833,10.8,10.8,0,0,0,.138-1.706c0-.83-.012-.95-.148-1.125-.2-.252-.307-.243-.544.034-.184.221-.191.255-.191,1.31a4.575,4.575,0,0,1-.166,1.682c-.1.1-.3-.12-.44-.513a2.059,2.059,0,0,0-.538-.827,1.526,1.526,0,0,1-.486-.775l-.111-.4-.055.6-.055.593.267.283a3.246,3.246,0,0,1,.895,3.366,5.5,5.5,0,0,1-2.715,2.835,11.107,11.107,0,0,0-1.079.7,8.181,8.181,0,0,0-.824,1.845c-.08.3-.218,1.018-.3,1.586-.252,1.706-.246,1.7-.556.941a4.368,4.368,0,0,1,.212-3.36c.138-.277.212-.486.166-.467-.824.35-1.651.67-2.333.895a2.431,2.431,0,0,0-1,.464c-.135.163-.191.178-.486.135a2.9,2.9,0,0,0-1.082.132c-.415.1-.9.206-1.088.234-.372.055-.477.178-.477.575,0,.215.043.283.274.424a1.168,1.168,0,0,0,.972.111c.166-.058.175-.049.132.148-.267,1.184-.175,1.251,1.261.947a.833.833,0,0,0,.354-.329c.209-.338.446-.387.664-.144.1.111.141.283.154.646a2.477,2.477,0,0,0,.132.769c.151.35.148.566-.006.735s-.341.172-.922-.012a3.238,3.238,0,0,0-.744-.144.38.38,0,0,0-.424.237c-.314.516-.126,1,.492,1.276a2.09,2.09,0,0,0,.59.181,3.148,3.148,0,0,1,1.273.652,2.205,2.205,0,0,1,.129.9c-.025,0-.271-.086-.544-.188-.849-.323-3.293-1.051-4.658-1.4a51.281,51.281,0,0,0-13.109-1.6,50,50,0,0,0-8.654.676c-.741.12-1.371.218-1.4.218-.1,0-.058-.692.049-.944.157-.372.04-.437-.51-.286q-.738.208-.738-.166A10.857,10.857,0,0,1,36.2,68.014c.956-.719,1.125-.907,1.125-1.251,0-.292.034-.274-.944-.495-.879-.2-.741-.267-1.414.756A11.535,11.535,0,0,1,31.312,70.4a1.429,1.429,0,0,1-1.525-.015,1.819,1.819,0,0,1-.452-.461.4.4,0,0,1-.046-.467,1.976,1.976,0,0,1,1.162-.827c.271-.1.784-.292,1.141-.421a4.835,4.835,0,0,0,2.6-2.072c.181-.335.184-.363.061-.406a6.063,6.063,0,0,1-1.291-.655,2.922,2.922,0,0,0-.394-.258,3.193,3.193,0,0,0-.3.523,2.961,2.961,0,0,1-1.122,1.3.6.6,0,0,1-.83-.381,1.681,1.681,0,0,1,.1-1.125,5.357,5.357,0,0,1,1.1-1.088l.206-.148-.267-.443a3.514,3.514,0,0,1-.311-.615c-.04-.163-.052-.157-.2.111a.821.821,0,0,1-.369.354c-.184.065-.231.049-.39-.135a.428.428,0,0,1-.129-.443.774.774,0,0,1,.563-.6c.2-.043.144-.083-.679-.483A6.43,6.43,0,0,0,28.9,61.2a.981.981,0,0,0-.692.418,1.637,1.637,0,0,0,.018,1.322c.08.16.28.538.449.842a3.787,3.787,0,0,1,.381,2.89c-.151.593-.563.535-1.07-.151a1.379,1.379,0,0,0-.258-.3,1.49,1.49,0,0,0-.243.326,3.346,3.346,0,0,1-1.03,1.073c-.258,0-.3-.267-.194-1.211.058-.489.1-1.34.1-1.888,0-.87-.018-1.03-.151-1.254-.206-.35-.5-.39-.652-.086a.5.5,0,0,1-.695.218c-.255-.123-.286-.35-.1-.744a1.8,1.8,0,0,0,.154-1.27.893.893,0,0,0-.738-.7c-.366,0-.443.154-.443.91s-.123,1.116-.449,1.3a.515.515,0,0,1-.726-.307,2.955,2.955,0,0,1,.332-2.026,1.639,1.639,0,0,0,.144-1.383c-.172-.6-.372-.778-.876-.778h-.4l-.151-.35a7.61,7.61,0,0,1-.267-.762,2.321,2.321,0,0,0-.36-.7,2.8,2.8,0,0,1-.8-2.361c.015-1.141.015-1.144-.778-.941-.234.058-.3-.117-.39-1.119-.163-1.648-.44-2.619-.766-2.681a.526.526,0,0,0-.578.249.283.283,0,0,1-.249.181c-.384,0-.378-.842.012-2.075A3.268,3.268,0,0,1,19.426,45.6a3.878,3.878,0,0,0,.87-.526,2.228,2.228,0,0,0,.427-1.765c-.077-.234-.108-.255-.372-.255-.424,0-.836.427-1.005,1.042-.132.47-.341.7-.566.612-.4-.151-.015-1.091.766-1.888a1.866,1.866,0,0,1,.987-.643,3.568,3.568,0,0,1,.683-.157.948.948,0,0,0,.689-.363c.132-.249.083-.452-.3-1.291-.489-1.076-.464-1.036-.679-1.061-.264-.031-.618.357-1.242,1.362-.283.455-.741,1.138-1.018,1.516-.67.913-.747,1.076-.818,1.78-.049.483-.092.621-.224.729-.2.163-.289.166-.5.018-.406-.286-.332-.944.2-1.759a2.315,2.315,0,0,1,.984-.968,1.531,1.531,0,0,0,.5-.427.872.872,0,0,0-.759-1.454,1.684,1.684,0,0,0-1.282.683,1.342,1.342,0,0,0-.286,1.823c.32.458.2.953-.335,1.442-.332.3-.7.347-.907.123-.237-.264-.28-.59-.184-1.457s.058-1.211-.111-1.211a1.152,1.152,0,0,0-.4.323.925.925,0,0,1-.643.375c-.387.058-.63.252-.63.5,0,.563.962,1.7,1.882,2.229.892.513,1.254,1,1.073,1.433-.065.154-.188.224-.621.357-.922.28-1.6.855-1.6,1.362,0,.467.609,1.239,1.513,1.928.415.311.523.433.541.615s-.031.267-.314.5c-.636.52-.415.888,1.147,1.931a6.893,6.893,0,0,1,1.027.772.663.663,0,0,1-.151.772c-.44.553-.2,1.048.769,1.617a2.16,2.16,0,0,1,.486.338c0,.071-.267.144-.523.148a.515.515,0,0,0-.326.148c-.323.36.191.71,1.4.953.932.188,1.128.372.913.849-.191.415-.572.264-.839-.329-.157-.344-.43-.406-.56-.126a1.452,1.452,0,0,1-.67.51c-.237.1-.286.332-.264,1.27.018.812,0,.932-.12,1.07-.2.221-.24.2-.206-.117a15.551,15.551,0,0,0-.855-3.588c-.234-.4-.7-.347-.922.1l-.114.234-.129-.2a2.37,2.37,0,0,1,.234-2.121c.43-.855.1-1.39-.855-1.39-.578,0-.646.111-.526.879.092.6.031.818-.231.818a1.284,1.284,0,0,1-.793-.569c-.283-.409-.271-.8.061-2.088a6.022,6.022,0,0,0,.384-2.447c-.086-.387-.184-.461-.747-.572-.584-.114-.861-.36-.947-.833-.08-.44-.252-.707-.495-.769-.326-.08-.516.077-.812.673a2.351,2.351,0,0,0-.311,1.177,1.715,1.715,0,0,0,.5,1.553,2.008,2.008,0,0,1,.495,2.214c-.354.63-.643.36-.778-.732-.111-.882-.363-1.036-.959-.581a1.339,1.339,0,0,0-.307,1.842,1.716,1.716,0,0,1,.221.541,1,1,0,0,1-.261.44,1.139,1.139,0,0,0,.071,1.74,2.719,2.719,0,0,0,1.823.612,3.2,3.2,0,0,1,1.055.231,4.711,4.711,0,0,1,1.411,1.26l.267.363-.344.483a1.713,1.713,0,0,1-.437.48,2.572,2.572,0,0,1-.833-.6,3.782,3.782,0,0,1-.418-.7c-.258-.529-.615-.913-.852-.913s-.516.292-.747.744c-.375.744-.24,1.171.412,1.3.673.141.569.867-.206,1.427a1.614,1.614,0,0,1-.35.215c-.031,0-.071-.148-.092-.332-.049-.449-.224-.7-.489-.7a.533.533,0,0,0-.341.148.3.3,0,0,1-.492.018,7.217,7.217,0,0,1-.455-1.144c-.624-1.848-1.091-2.638-1.556-2.638a.484.484,0,0,0-.495.4.309.309,0,0,1-.39.243c-.212-.08-.354-.566-.39-1.34a4.111,4.111,0,0,1,1.408-3.7c1.07-.805,1.242-1.076,1.239-1.974,0-.679-.16-1.187-.394-1.261a.772.772,0,0,0-.753.4A1.626,1.626,0,0,0,7,51.341c0,.461-.129.741-.357.775-.44.065-.492-.406-.16-1.4a2.975,2.975,0,0,1,1.872-2.088c.7-.332.858-.5.858-.873,0-.2-.1-.357-.873-1.344-.535-.686-.636-.781-.809-.759-.3.034-.6.541-.968,1.648-.178.526-.526,1.42-.772,1.989L5.34,50.321v1c0,1.11-.046,1.248-.418,1.248-.464,0-.793-.649-.652-1.285a7.065,7.065,0,0,1,.6-1.568,1.106,1.106,0,0,1,.354-.354,2.126,2.126,0,0,0,.67-1.208.958.958,0,0,0-.907-.938c-.836-.154-1.971,1.045-1.971,2.084a1.4,1.4,0,0,0,.51,1.162c.267.261.3.329.3.633a1.788,1.788,0,0,1-.221.79c-.184.369-.277.467-.516.563a.573.573,0,0,1-.812-.264,3.207,3.207,0,0,1-.363-1.476,4.884,4.884,0,0,0-.166-.907c-.141-.311-.36-.212-.615.28-.191.363-.261.437-.507.5a.779.779,0,0,0-.636.646A1.925,1.925,0,0,0,.731,52.3a7.347,7.347,0,0,0,2.026,1.051c1,.286,1.519.762,1.4,1.282-.034.138-.169.261-.5.443a3.462,3.462,0,0,0-1.454,1.479.937.937,0,0,0,.181.932A6.542,6.542,0,0,0,4.34,58.775c.91.387.984.6.437,1.233s-.108,1.042,2.014,1.823c1.273.47,1.494.729,1.168,1.365a1.018,1.018,0,0,0-.071.889,2.93,2.93,0,0,0,1.344.735,1.658,1.658,0,0,1,.578.258c0,.043-.166.126-.375.191-.418.126-.513.224-.513.532,0,.354.354.455,1.645.464,1.011.009,1.107.022,1.251.166a.678.678,0,0,1,.058.781c-.181.218-.424.135-.845-.289-.433-.44-.575-.461-.7-.117a1.231,1.231,0,0,1-.261.4c-.418.421-.163.778.762,1.061,1.042.317,1.423.578,1.66,1.147.188.446.151.753-.114.975-.283.24-.455.24-.932,0A4.724,4.724,0,0,1,9.432,67.66a3.189,3.189,0,0,0-1.915-2.355,1.165,1.165,0,0,1-.781-.75c-.123-.32-.12-.4.012-1.691.04-.384.025-.47-.114-.646s-.209-.2-.6-.2a1.738,1.738,0,0,0-.584.077c-.188.1-.184.4,0,.882s.184.566,0,.667c-.123.065-.221.049-.495-.089-.664-.332-.769-.673-.7-2.312.046-1.217-.04-1.869-.28-2.109-.108-.108-.246-.141-.6-.141-.569,0-.922-.184-.99-.52-.086-.437-.673-.738-.935-.477a2.872,2.872,0,0,0-.148,2.287,2.179,2.179,0,0,0,.787.8,2.356,2.356,0,0,1,.719,1.1c.1.369-.055.889-.277.919-.184.028-.354-.212-.547-.781-.286-.833-.587-.895-1.055-.206a1.248,1.248,0,0,0,.3,1.645.585.585,0,0,1,.025.8,1.059,1.059,0,0,0,.495,1.485c.289.145.523.154,2.051.092a1.558,1.558,0,0,1,1.07.181C5.788,66.8,6.382,67.4,6.3,67.771a.59.59,0,0,1-.55.443,2.331,2.331,0,0,1-1.411-.852c-.35-.461-.575-.624-.864-.624-.271,0-.44.188-.572.633-.234.772-.071,1.138.507,1.138.433,0,.6.181.547.593-.043.3-.08.366-.775,1.174-.55.646-.507,1.008.144,1.187a.512.512,0,0,1,.338.252.9.9,0,0,0,.277.307c.181.12.2.117.39-.025a2.781,2.781,0,0,0,.726-1.239c.415-1.091.861-1.808,1.131-1.808.166,0,.221.144.221.566s-.074.55-.489,1c-.357.384-.418.667-.172.8a.326.326,0,0,0,.344-.015c.2-.1.234-.141.433-.593.129-.3.289-.347.55-.184a.277.277,0,0,0,.424-.212,3.668,3.668,0,0,0-.354-.907c-.384-.787-.443-1.128-.206-1.171a6.168,6.168,0,0,1,1.47,1.912c.9,1.466,1.688,1.866,3.9,1.986,1.3.071,1.645.135,1.946.372.338.264.234.759-.261,1.221-.5.477-1.094.5-2.25.1a9.837,9.837,0,0,1-3.425-1.925c-.67-.572-.953-.707-1.217-.587a.485.485,0,0,0-.231.209,1.764,1.764,0,0,1-.335.4c-.249.237-.283.307-.261.556s.052.3.427.483c.224.108.7.3,1.07.43s1.073.43,1.574.667c.861.409.907.443.885.633-.028.234-.191.3-.747.314-.437.009-.52.151-.252.437a.822.822,0,0,1,.212.455c.025.234.049.261.267.283.246.025.529-.111,1.454-.679a4.035,4.035,0,0,1,1.408-.523.519.519,0,0,1,.621.507,1.938,1.938,0,0,1-.762,1.159,2.554,2.554,0,0,1-1.3.433,3.972,3.972,0,0,1-.778-.138c-1.045-.286-1.706-.261-1.974.071a1.141,1.141,0,0,0-.018,1.027c.166.138.575.043.953-.215.354-.246.523-.274.815-.141.274.126.24.378-.144,1.018-.47.784-.437,1.045.172,1.3.646.267,1.045-.071,1.045-.885a3.453,3.453,0,0,1,.077-.719c.148-.532.839-.864,1.033-.5.061.114.055.231-.034.492a.905.905,0,0,0-.037.624c.221.827.775.719,1.54-.292a3.541,3.541,0,0,0,.741-1.393c0-.329-.191-.415-.787-.36-.538.049-.541.049-.541-.132,0-.32.784-.907,1.021-.762a.523.523,0,0,1,.111.258c.055.28.267.363.427.163a1.54,1.54,0,0,0,.175-.965c-.055-.178-.344-.2-.483-.034a.293.293,0,0,1-.467-.058c-.065-.1-.049-.16.074-.28.148-.148.169-.151.624-.043a10.489,10.489,0,0,1,1.005.307,2.557,2.557,0,0,1,1.6,2.106c.181.726.169.781-.221,1.011-.184.111-.975.618-1.752,1.128a56.547,56.547,0,0,0-6.115,4.59c-.9.781-1.128,1-.775.775.787-.507,2.958-1.725,4.556-2.552a70.091,70.091,0,0,1,25.6-7.5,71.38,71.38,0,0,1,14.978.258A70.821,70.821,0,0,1,82.135,85.544c.7.443,1.285.812,1.3.815a10.06,10.06,0,0,0-1.325-1.279,58.672,58.672,0,0,0-15-9.783c-.8-.36-.778-.32-.639-1.073.071-.378.065-.47-.043-.676-.12-.221-.12-.252,0-.553a15.317,15.317,0,0,1,1.476-2.244,4.445,4.445,0,0,1,1.58-1.061c.495-.209.526-.215.824-.111a8.016,8.016,0,0,0,1.058.228,5.843,5.843,0,0,1,1.055.252,2.192,2.192,0,0,0,1.362.022,5.183,5.183,0,0,1,2.078.135.945.945,0,0,0,1.018-.031.876.876,0,0,0,.437-.762c0-.307-.114-.387-.652-.443s-.716-.2-.47-.4a6.76,6.76,0,0,1,.716-.437c.575-.314.852-.658.849-1.055,0-.228-.068-.311-.363-.461-.427-.221-.676-.129-2.18.812-1.568.981-1.823,1.067-2.373.787-.6-.307-.609-.28.581-1.439,1.174-1.144,1.005-.892,1.949-2.905a2.279,2.279,0,0,1,.956-1.03c.129-.031.228.015.394.178.188.188.332.243.941.354.769.135.747.123,1.328.821.246.3.366.381.6.418.39.061.59.307.928,1.159a8.477,8.477,0,0,0,.6,1.184c.175.277.409.683.516.907.252.535.477.707.91.707a1.224,1.224,0,0,0,.922-.381c.163-.264-.071-.689-.738-1.331l-.63-.612.031-.39c.04-.495.191-.7.836-1.138a3.026,3.026,0,0,1,1.759-.621,3.021,3.021,0,0,0,.8-.151.811.811,0,0,0,.3-1.122,3.13,3.13,0,0,0-1.4-.449,2.667,2.667,0,0,0-1.347.695c-1.008.775-1.5.913-2.3.639-.876-.3-1.1-.516-.932-.873.092-.191.5-.363,1.181-.5a1.54,1.54,0,0,0,.775-2.112.67.67,0,0,0-.335-.277,4.153,4.153,0,0,0-1.177.575,10.932,10.932,0,0,1-1.273.676c-.311.1-.882-.028-.882-.191a2.97,2.97,0,0,1,.892-1.048,2.225,2.225,0,0,1,1.088-.289,8.788,8.788,0,0,0,1.4-.286,1.833,1.833,0,0,1,1.39-.031c.184.055.277.169.492.6a3.163,3.163,0,0,0,.4.652,2.73,2.73,0,0,0,1.5.387c.689,0,.858-.086.965-.489a.559.559,0,0,0-.412-.781c-1.177-.412-1.439-.615-1.439-1.119s.034-.516.59-.516c.354,0,.526.034.59.111.126.154.28.141.639-.052L86.531,58l.286.2a1.105,1.105,0,0,0,.458.2,12.746,12.746,0,0,0,1.654-.378,2.251,2.251,0,0,0,1.091-.968,1.162,1.162,0,0,0,.126-.6c-.022-.277-.046-.311-.231-.332a2.189,2.189,0,0,0-.83.283c-.769.384-1.11.44-1.362.234l-.184-.148.148-.274a.817.817,0,0,1,.332-.344,4.627,4.627,0,0,0,1.224-.695.579.579,0,0,0,.1-.873c-.163-.206-.314-.221-.8-.074-.126.04.025-.144.489-.6ZM12.856,63.061a1.007,1.007,0,0,1,.1.332c-.043.046-.344-.412-.344-.526C12.61,62.655,12.736,62.754,12.856,63.061Zm.667,3.434c-.114.04-.4-.32-.855-1.061a3.044,3.044,0,0,0-.735-.882l-.357-.261.237-.329c.36-.5.381-.51.741-.3a1.612,1.612,0,0,1,.876,1.233,5.693,5.693,0,0,1,.169,1.1C13.6,66.283,13.576,66.477,13.524,66.5Zm9.86,7.532-.234.083c-.2.071-.274.055-.569-.117a3.411,3.411,0,0,1-1.236-1.316,4.664,4.664,0,0,1-.283-1.11c-.132-.95-.32-1.221-.667-.965a.2.2,0,0,1-.277.018c-.111-.068-.157-.055-.24.055-.16.215-.2.695-.154,1.685.025.5.046.975.049,1.055a4.864,4.864,0,0,1-.249.876c-.249.726-.347.79-.347.234a18.678,18.678,0,0,0-1.153-4.264,5.313,5.313,0,0,1-.47-1.829,2.9,2.9,0,0,1,.473-1.476.921.921,0,0,0,.086-1c-.089-.209-.148-.255-.329-.255s-.224.037-.243.166a.316.316,0,0,1-.228.234c-.163.058-.243.043-.421-.089a.822.822,0,0,0-.381-.163.575.575,0,0,1-.329-.154c-.237-.221-.449-.132-.547.231a2.888,2.888,0,0,0,.409,1.872,4.226,4.226,0,0,1,.624,2c0,.421-.015.483-.135.483a2.411,2.411,0,0,1-1.122-.695c-.418-.406-.43-.5-.108-.972a1.134,1.134,0,0,0,.184-.375,2.532,2.532,0,0,0-.224-.547c-.289-.572-.363-1.119-.184-1.319.163-.181.071-.507-.258-.91-.433-.523-.563-.271-.286.553.246.729.188,2.032-.071,1.553a13.094,13.094,0,0,1-.4-2.407,1.12,1.12,0,0,1,.117-.661c.126-.191.138-.194.332-.083.111.061.317.2.458.3a.749.749,0,0,0,.633.16,1.319,1.319,0,0,0,.609-.2l.234-.166.495.2a1.487,1.487,0,0,0,.981.135c.264-.031.686-.061.935-.065.566,0,.689.1.947.769a2.487,2.487,0,0,0,.913,1.214,2.4,2.4,0,0,0,.636.154c.95.1,1.586.394,1.586.716,0,.123-.028.138-.166.1a3.4,3.4,0,0,0-.532-.092.945.945,0,0,0-1.1,1.064c.006.489.237.895.941,1.648a4.363,4.363,0,0,1,1.3,3.111v.563Zm1.3-5.482c-.406.4-.51.16-.446-1.021.077-1.365-.077-1.688-.722-1.516a3.943,3.943,0,0,1-2.973-1.079,3.691,3.691,0,0,0-1.943-.975l-.584-.114-.04-.3c-.034-.243-.015-.32.1-.4.181-.129.181-.36-.006-.664-.08-.132-.12-.24-.089-.24s.409.178.839.4a4.2,4.2,0,0,1,1.906,1.411,2.154,2.154,0,0,0,.4.535,3.85,3.85,0,0,0,2.306.722,1.228,1.228,0,0,0,.378-.194.663.663,0,0,1,.289-.141c.172,0,.526.43.818.993a1.781,1.781,0,0,1,.267,1.11,1.968,1.968,0,0,1-.5,1.476Zm8.953,3.323c-1.4.311-2.871.7-4.24,1.119-.609.184-1.153.354-1.208.375-.08.031-.083.009-.015-.117a7.154,7.154,0,0,1,2.589-1.706,3.826,3.826,0,0,1,2.773-.157,6.888,6.888,0,0,0,.809.194c.357.052.35.055-.707.292Zm37.378-8.335a17.029,17.029,0,0,0-.443,1.737,1.872,1.872,0,0,1-.455,1.184c-.077.068-.633.44-1.242.83a7.338,7.338,0,0,1-1.27.707c-.212,0-.237-.181-.12-.879A2.545,2.545,0,0,1,68.5,65.182c1.488-1.433,2.1-2.041,2.423-2.429.188-.221.363-.384.387-.357A5.912,5.912,0,0,1,71.015,63.534Zm8.276-7.615a4.117,4.117,0,0,1-1.214,1.965c-.449.507-.972,1.088-1.159,1.291l-.341.369.049-.627c.028-.344.046-.836.04-1.091a1.642,1.642,0,0,1,.114-.7,5.092,5.092,0,0,1,1.131-1.267,3.084,3.084,0,0,1,.815-.157l.612-.049-.046.271Zm4.258-2.429a4.762,4.762,0,0,0-.4,1.184A3.531,3.531,0,0,1,80.7,57.7c-.3.068-.6.141-.67.16s-.129.022-.129.006c0-.068.6-1.553.735-1.814a4.084,4.084,0,0,1,.544-.726c.815-.882.91-1.543.274-1.866l-.3-.154v-.649a1.634,1.634,0,0,0-.1-.79c-.1-.138-.114-.135-.369.111a2.769,2.769,0,0,0-.636,1.466c-.1.529-.274.71-.744.79s-.486-.037-.071-.566a8.847,8.847,0,0,0,1.457-2.432,3.339,3.339,0,0,0,.415-1.473c0-.593-.1-.809-.378-.809-.381,0-.729.563-1.015,1.639a4.242,4.242,0,0,1-.913,1.823c-.234.307-.6.842-.815,1.187s-.492.75-.612.9c-.28.35-.753.679-.9.624-.24-.092-.074-2.011.212-2.447a1.293,1.293,0,0,1,.443-.32.962.962,0,0,0,.458-.4,9.163,9.163,0,0,1,1.024-1.125c.492-.486,1.138-1.171,1.43-1.522.556-.67.858-.876,1.288-.876a.868.868,0,0,0,.578-.267,1.724,1.724,0,0,1,.953-.47c.129,0,.151.034.114.166a9.4,9.4,0,0,0-.178,2.164,3.094,3.094,0,0,0,.458,1.66c.606,1.307.593,1.236.3,1.8Z" transform="translate(9.01 -19.12)" fill="#fff"/></g></g><g data-type="innerShadowGroup"><g transform="matrix(1, 0, 0, 1, -9.01, -6)" filter="url(#f)"><path d="M118.383,33.411c-.686-.79-.809-1.291-.87-3.529a12.741,12.741,0,0,0-.154-1.912c-.061-.261-.148-.805-.191-1.208-.3-2.991-1.537-5.728-3.975-8.833a9.4,9.4,0,0,1-.729-1.07,10.012,10.012,0,0,0-1.682-2.054c-.652-.689-.787-.753-.618-.311.068.175.061.184-.068.117a10.319,10.319,0,0,1-.938-.928c-.719-.769-.987-.962-.772-.563.043.077.055.16.031.184a8.118,8.118,0,0,1-1.47-1.371c-.071-.228-.184-.055-.135.209.028.138.025.252,0,.252a8.5,8.5,0,0,1-.759-.627,6.245,6.245,0,0,0-.778-.627c-.037,0-.052.068-.031.148.061.234-.034.178-.5-.3a4.307,4.307,0,0,0-.639-.553c-.184-.1-.2-.092-.221.061s-.1.086-.658-.437a7.433,7.433,0,0,0-.8-.686c-.157-.083-.163-.077-.141.151.015.132-.006.252-.049.264a2.727,2.727,0,0,1-.664-.424c-1.8-1.38-1.666-1.291-1.774-1.147-.089.126-.117.114-.415-.157A8.382,8.382,0,0,0,97.97,7c-.3-.151-.415-.111-.418.141,0,.188-.252.08-.692-.3C96,6.092,95.19,5.554,95.086,5.659a.327.327,0,0,0-.046.184c0,.209-.2.071-.984-.67-.944-.895-1.147-1.039-1.4-.99-.184.037-.261-.015-.646-.443a1.531,1.531,0,0,0-.676-.532,1.213,1.213,0,0,1-.461-.255,5.936,5.936,0,0,0-2-1.131,4.931,4.931,0,0,1-.682-.267,2.419,2.419,0,0,0-.655-.2A2.222,2.222,0,0,1,86.674.97a3.1,3.1,0,0,0-1.51-.6A2.524,2.524,0,0,1,84.43.183C83.923-.023,83.308-.066,83.308.1c0,.055-.068.12-.151.144A5.045,5.045,0,0,1,81.869.094c-.08-.025-1.113-.04-2.29-.034-2.214.012-2.656.061-3.228.354-.415.215-.655.412-.584.483a5.193,5.193,0,0,0,.876.28A7.848,7.848,0,0,1,81,3.762a14.244,14.244,0,0,1,2.973,10.711c-.077.769-.344,2.5-.418,2.69-.061.163-.532.12-.864-.077a9.664,9.664,0,0,1-2.18-2.546,16.959,16.959,0,0,0-4.692-5.226,7.962,7.962,0,0,0-2.739-1.248c-.052.052.215.516.8,1.387a7.435,7.435,0,0,1,1.54,5.07,10.04,10.04,0,0,1-2.484,5.15l-.4.452.695.231a7.112,7.112,0,0,0,3.4.433,1.225,1.225,0,0,1,.981.108,3.248,3.248,0,0,1,1.35.769c.455.43.572.7.409.947-.1.157-.148.175-.307.114-.372-.141-.71-.071-1.755.363-.575.237-1.128.458-1.23.489a1.8,1.8,0,0,0-.437.246c-.237.181-.307.194-1.156.209-1.2.018-1.47.16-1.657.852-.043.154-.12.277-.178.277-.212,0-.409.6-.409,1.245a1.78,1.78,0,0,0,.221,1.042,2.7,2.7,0,0,0,.387.593c.163.154.166.157.025.261s-.132.12.181.446c.181.188.578.541.882.787s.544.492.532.547c-.04.181.129.307.953.732.787.4,1.217.762,1.141.959-.049.132.1.2.842.4a1.553,1.553,0,0,1,1.011.563,2.4,2.4,0,0,0,.919.621c.556.228.839.437.913.667s.569.307,1.473.258c.446-.022.962-.061,1.144-.086.314-.04.323-.037.188.074a1.536,1.536,0,0,1-.443.2c-.455.12-.7.221-.7.283a3.817,3.817,0,0,0,1.448.354,4.717,4.717,0,0,0,2-.329l.48-.194.344.169c.188.092.941.384,1.669.646a9.338,9.338,0,0,0,3.714.679c1.177.071,1.211.08,1.485.3.553.437.569.427-.676.461a3.36,3.36,0,0,0-1.608.237,3.52,3.52,0,0,1-1.076.264,3.079,3.079,0,0,0-.747.138,20.7,20.7,0,0,1-3.637.034,3.542,3.542,0,0,1-1.239-.427,2.841,2.841,0,0,0-.735-.3c-.077.077.652.769,1.174,1.119a13.8,13.8,0,0,0,4.316,1.648,40.637,40.637,0,0,0,6.333,1.107,14.336,14.336,0,0,0,2.718.006,8.54,8.54,0,0,0,2.659-.6l.347-.175.827.178a10.173,10.173,0,0,0,2.635.188,13.9,13.9,0,0,0,4.538-.547,23,23,0,0,0,3.446-1.171,2.527,2.527,0,0,1,1.276-.3,1.681,1.681,0,0,0,.919-.181,8.87,8.87,0,0,1,1.159-.415c1.891-.55,2.607-1.2,2.758-2.49a3.416,3.416,0,0,1,.175-.766C118.783,33.958,118.759,33.842,118.383,33.411ZM115.564,32.1a.956.956,0,0,1-.833.018,1.6,1.6,0,0,1-.455-2.687,1.325,1.325,0,0,1,2.044.427A1.594,1.594,0,0,1,115.564,32.1Z" transform="translate(-41.03 6)" fill="#fff"/></g><g transform="matrix(1, 0, 0, 1, -9.01, -6)" filter="url(#h)"><path d="M118.383,33.411c-.686-.79-.809-1.291-.87-3.529a12.741,12.741,0,0,0-.154-1.912c-.061-.261-.148-.805-.191-1.208-.3-2.991-1.537-5.728-3.975-8.833a9.4,9.4,0,0,1-.729-1.07,10.012,10.012,0,0,0-1.682-2.054c-.652-.689-.787-.753-.618-.311.068.175.061.184-.068.117a10.319,10.319,0,0,1-.938-.928c-.719-.769-.987-.962-.772-.563.043.077.055.16.031.184a8.118,8.118,0,0,1-1.47-1.371c-.071-.228-.184-.055-.135.209.028.138.025.252,0,.252a8.5,8.5,0,0,1-.759-.627,6.245,6.245,0,0,0-.778-.627c-.037,0-.052.068-.031.148.061.234-.034.178-.5-.3a4.307,4.307,0,0,0-.639-.553c-.184-.1-.2-.092-.221.061s-.1.086-.658-.437a7.433,7.433,0,0,0-.8-.686c-.157-.083-.163-.077-.141.151.015.132-.006.252-.049.264a2.727,2.727,0,0,1-.664-.424c-1.8-1.38-1.666-1.291-1.774-1.147-.089.126-.117.114-.415-.157A8.382,8.382,0,0,0,97.97,7c-.3-.151-.415-.111-.418.141,0,.188-.252.08-.692-.3C96,6.092,95.19,5.554,95.086,5.659a.327.327,0,0,0-.046.184c0,.209-.2.071-.984-.67-.944-.895-1.147-1.039-1.4-.99-.184.037-.261-.015-.646-.443a1.531,1.531,0,0,0-.676-.532,1.213,1.213,0,0,1-.461-.255,5.936,5.936,0,0,0-2-1.131,4.931,4.931,0,0,1-.682-.267,2.419,2.419,0,0,0-.655-.2A2.222,2.222,0,0,1,86.674.97a3.1,3.1,0,0,0-1.51-.6A2.524,2.524,0,0,1,84.43.183C83.923-.023,83.308-.066,83.308.1c0,.055-.068.12-.151.144A5.045,5.045,0,0,1,81.869.094c-.08-.025-1.113-.04-2.29-.034-2.214.012-2.656.061-3.228.354-.415.215-.655.412-.584.483a5.193,5.193,0,0,0,.876.28A7.848,7.848,0,0,1,81,3.762a14.244,14.244,0,0,1,2.973,10.711c-.077.769-.344,2.5-.418,2.69-.061.163-.532.12-.864-.077a9.664,9.664,0,0,1-2.18-2.546,16.959,16.959,0,0,0-4.692-5.226,7.962,7.962,0,0,0-2.739-1.248c-.052.052.215.516.8,1.387a7.435,7.435,0,0,1,1.54,5.07,10.04,10.04,0,0,1-2.484,5.15l-.4.452.695.231a7.112,7.112,0,0,0,3.4.433,1.225,1.225,0,0,1,.981.108,3.248,3.248,0,0,1,1.35.769c.455.43.572.7.409.947-.1.157-.148.175-.307.114-.372-.141-.71-.071-1.755.363-.575.237-1.128.458-1.23.489a1.8,1.8,0,0,0-.437.246c-.237.181-.307.194-1.156.209-1.2.018-1.47.16-1.657.852-.043.154-.12.277-.178.277-.212,0-.409.6-.409,1.245a1.78,1.78,0,0,0,.221,1.042,2.7,2.7,0,0,0,.387.593c.163.154.166.157.025.261s-.132.12.181.446c.181.188.578.541.882.787s.544.492.532.547c-.04.181.129.307.953.732.787.4,1.217.762,1.141.959-.049.132.1.2.842.4a1.553,1.553,0,0,1,1.011.563,2.4,2.4,0,0,0,.919.621c.556.228.839.437.913.667s.569.307,1.473.258c.446-.022.962-.061,1.144-.086.314-.04.323-.037.188.074a1.536,1.536,0,0,1-.443.2c-.455.12-.7.221-.7.283a3.817,3.817,0,0,0,1.448.354,4.717,4.717,0,0,0,2-.329l.48-.194.344.169c.188.092.941.384,1.669.646a9.338,9.338,0,0,0,3.714.679c1.177.071,1.211.08,1.485.3.553.437.569.427-.676.461a3.36,3.36,0,0,0-1.608.237,3.52,3.52,0,0,1-1.076.264,3.079,3.079,0,0,0-.747.138,20.7,20.7,0,0,1-3.637.034,3.542,3.542,0,0,1-1.239-.427,2.841,2.841,0,0,0-.735-.3c-.077.077.652.769,1.174,1.119a13.8,13.8,0,0,0,4.316,1.648,40.637,40.637,0,0,0,6.333,1.107,14.336,14.336,0,0,0,2.718.006,8.54,8.54,0,0,0,2.659-.6l.347-.175.827.178a10.173,10.173,0,0,0,2.635.188,13.9,13.9,0,0,0,4.538-.547,23,23,0,0,0,3.446-1.171,2.527,2.527,0,0,1,1.276-.3,1.681,1.681,0,0,0,.919-.181,8.87,8.87,0,0,1,1.159-.415c1.891-.55,2.607-1.2,2.758-2.49a3.416,3.416,0,0,1,.175-.766C118.783,33.958,118.759,33.842,118.383,33.411ZM115.564,32.1a.956.956,0,0,1-.833.018,1.6,1.6,0,0,1-.455-2.687,1.325,1.325,0,0,1,2.044.427A1.594,1.594,0,0,1,115.564,32.1Z" transform="translate(-41.03 6)" fill="#fff"/></g></g><path d="M226.82,93.394v-.959l.427-.314a4.537,4.537,0,0,1,.544-.357c.157-.061.424.3.424.575a2.434,2.434,0,0,1-1.055,1.58.636.636,0,0,0-.271.271c-.043.108-.065-.166-.068-.8Z" transform="translate(-157.094 -63.549)" fill="#fff"/><g data-type="innerShadowGroup"><g transform="matrix(1, 0, 0, 1, -9.01, -6)" filter="url(#k)"><path d="M205.807,42.124c-.344-.421-.938-1.091-1.322-1.488a3.589,3.589,0,0,1-.649-.769.6.6,0,0,1,.28-.04c.184.006.335.1.695.464.252.252.495.433.538.409a3.585,3.585,0,0,0,.455-1.909c.086-1.187.194-1.6.523-2,.28-.341.47-.335.707.015a2.972,2.972,0,0,1,.209,2.223c-.058.264-.231,1.094-.378,1.845s-.307,1.51-.354,1.688l-.083.323-.627-.766Z" transform="translate(-132.16 -19.31)" fill="#fff"/></g><g transform="matrix(1, 0, 0, 1, -9.01, -6)" filter="url(#m)"><path d="M205.807,42.124c-.344-.421-.938-1.091-1.322-1.488a3.589,3.589,0,0,1-.649-.769.6.6,0,0,1,.28-.04c.184.006.335.1.695.464.252.252.495.433.538.409a3.585,3.585,0,0,0,.455-1.909c.086-1.187.194-1.6.523-2,.28-.341.47-.335.707.015a2.972,2.972,0,0,1,.209,2.223c-.058.264-.231,1.094-.378,1.845s-.307,1.51-.354,1.688l-.083.323-.627-.766Z" transform="translate(-132.16 -19.31)" fill="#fff"/></g></g></g></svg>