<svg xmlns="http://www.w3.org/2000/svg" xmlns:xlink="http://www.w3.org/1999/xlink" width="413.2" height="164.904" viewBox="0 0 413.2 164.904"><defs><filter id="a" x="178.2" y="99.904" width="233" height="65" filterUnits="userSpaceOnUse"><feOffset dy="3" input="SourceAlpha"/><feGaussianBlur stdDeviation="3" result="b"/><feFlood flood-opacity="0.161"/><feComposite operator="in" in2="b"/><feComposite in="SourceGraphic"/></filter><filter id="c" x="350.585" y="59.034" width="62.615" height="46.031" filterUnits="userSpaceOnUse"><feOffset dy="3" input="SourceAlpha"/><feGaussianBlur stdDeviation="3" result="d"/><feFlood flood-opacity="0.161"/><feComposite operator="in" in2="d"/><feComposite in="SourceGraphic"/></filter><filter id="e" x="277.62" y="58.601" width="93.813" height="46.465" filterUnits="userSpaceOnUse"><feOffset dy="3" input="SourceAlpha"/><feGaussianBlur stdDeviation="3" result="f"/><feFlood flood-opacity="0.161"/><feComposite operator="in" in2="f"/><feComposite in="SourceGraphic"/></filter><filter id="g" x="10.49" y="2.569" width="129.82" height="81.992" filterUnits="userSpaceOnUse"><feOffset dy="3" input="SourceAlpha"/><feGaussianBlur stdDeviation="3" result="h"/><feFlood flood-opacity="0.161"/><feComposite operator="in" in2="h"/><feComposite in="SourceGraphic"/></filter><filter id="i" x="0" y="0" width="350.545" height="148.471" filterUnits="userSpaceOnUse"><feOffset dy="3" input="SourceAlpha"/><feGaussianBlur stdDeviation="3" result="j"/><feFlood flood-opacity="0.161"/><feComposite operator="in" in2="j"/><feComposite in="SourceGraphic"/></filter></defs><g transform="translate(-727.199 -212.115)"><g transform="matrix(1, 0, 0, 1, 727.2, 212.12)" filter="url(#a)"><text transform="translate(187.2 140.9)" fill="#fff" font-size="33" font-family="Poppins-Bold, Poppins" font-weight="700" letter-spacing="0.8em"><tspan x="0" y="0">FRAGS</tspan></text></g><g transform="translate(736.199 218.114)"><g transform="matrix(1, 0, 0, 1, -9, -6)" filter="url(#c)"><path d="M390.58,69.1c-1.21-.36-1.18-.38-5,2.21a117.878,117.878,0,0,1-17.53,9.4c-4.04,1.78-9.47,3.69-11.15,3.92l-2.12-.85,1.8-1.52,4.09-1.98c10.07-4.89,13.28-8.66,10.91-12.79a6.664,6.664,0,0,0-6.01-3.41c-3.84,0-8.1,2.88-12.09,8.18-3.32,4.41-5.13,9-4.87,12.34.29,3.55,2.85,6.69,5.98,7.3a8.68,8.68,0,0,0,4.16-.09c3.63-.7,11.38-4.25,18.37-8.42,3.34-2,14.79-9.41,15.66-10.15a1.682,1.682,0,0,0,.42-1.26,3.465,3.465,0,0,0-2.61-2.88Zm-31.35,6a10.937,10.937,0,0,1,2.54-3.82,6.19,6.19,0,0,1,4.39-1.92h.97l-.95.98c-.52.53-1.79,1.64-2.82,2.46a32.789,32.789,0,0,1-3.09,2.18l-1.21.7.18-.58Z" transform="translate(11 0.95)" fill="#fff"/></g><g transform="matrix(1, 0, 0, 1, -9, -6)" filter="url(#e)"><path d="M353.22,66.76c.62-.92-.14-2.77-1.94-4.74-3.39-3.7-7.94-3.75-13.22-.12-.72.49-1.1.63-1.16.43a8.525,8.525,0,0,0-2.78-3.01c-1.17-.73-2.56-.94-3.03-.46a17.686,17.686,0,0,0-1.17,2.65,7.819,7.819,0,0,1-2.69,4.09c-6.03,5.7-11.63,9.84-15.05,11.12a5.571,5.571,0,0,1-1.48.42c-.21-.08.85-4.36,2.17-8.77a27.814,27.814,0,0,0,.95-3.85c0-1.91-2.92-4.84-4.82-4.84-.86,0-1.18.24-4.22,3.06-9.25,8.6-13.4,12.15-17.48,14.93a6.7,6.7,0,0,1-2.23,1.24,34.183,34.183,0,0,1,2.7-6.36,29.245,29.245,0,0,1,1.8-2.77,3.546,3.546,0,0,0,.98-2.19c0-1.94-2.85-4.79-4.8-4.79-1.08,0-1.76.68-3.73,3.72-3.18,4.9-4.67,9.37-4.36,13.11a7.577,7.577,0,0,0,2.12,4.91c2.79,3.04,6.64,3.04,11.69-.01a80.872,80.872,0,0,0,9.39-7.04l2.52-2.17.14,2.44c.16,2.8.73,4.21,2.3,5.71a6.1,6.1,0,0,0,4.61,1.93,6.259,6.259,0,0,0,3.5-.98,46.047,46.047,0,0,0,8.3-5.99,12.921,12.921,0,0,1,1.68-1.39c0,.06-.39,1.12-.86,2.36a6.738,6.738,0,0,0-.74,3.18,6.143,6.143,0,0,0,2.68,3.68c1.11.77,2.51,1.03,3.13.6a18.455,18.455,0,0,0,1.51-2.54c4.06-7.65,10.68-14.78,16.54-17.84,1.81-.94,2-.97,2.61-.3a5.325,5.325,0,0,0,2.74,1.41,2.561,2.561,0,0,0,1.73-.82Z" transform="translate(9 6)" fill="#fff"/></g><path d="M0,46.46v.63A.617.617,0,0,0,0,46.46Z" fill="#fff"/><path d="M50.39,4.14l-.24.02A1.1,1.1,0,0,0,50.39,4.14Z" fill="#fff"/><path d="M113.75,32.85a9.606,9.606,0,0,1-1.29,3.5,72.7,72.7,0,0,0-3.11,7.02c-.39,1.01-.77,2.05-1.13,3.13-.94,2.79-1.57,3.86-2.23,3.81a7.139,7.139,0,0,1-1.03-.24,7.811,7.811,0,0,1-2.62-1.97,5.977,5.977,0,0,1-1.08-1.39,4.44,4.44,0,0,1-.47-1.63c0-2.18,5.82-15.66,7.14-16.53,1.7-1.11,5.82,1.94,5.82,4.3Z" fill="#fff"/><g transform="matrix(1, 0, 0, 1, -9, -6)" filter="url(#g)"><path d="M121.28,60.25a7.223,7.223,0,0,0-1.92,1.2c-1.11.9-2.5,1.88-4.06,2.9a7.811,7.811,0,0,0,2.62,1.97,7.139,7.139,0,0,0,1.03.24c.66.05,1.29-1.02,2.23-3.81.36-1.08.74-2.12,1.13-3.13a4.768,4.768,0,0,1-1.03.63ZM51.45,4.06l5.48-.41a4.174,4.174,0,0,0-.34-1.08c-1.7.47-3.49.99-5.14,1.49ZM10.63,28.08c.04-.06.38-.49.83-1.04-.33.3-.65.61-.97.92.03.21.05.23.14.12Z" transform="translate(9 6)" fill="#fff"/></g><g transform="matrix(1, 0, 0, 1, -9, -6)" filter="url(#i)"><path d="M331.81,30.72c-.85-1.18-1.5-1.65-3.98-2.89-7.21-3.62-17.39-5.34-31.62-5.34-4.06,0-5.94-.08-5.94-.26,0-.14,1.3-2.97,2.88-6.29a66.37,66.37,0,0,0,2.88-6.52,5.814,5.814,0,0,0-.72-1.75c-1.34-2.33-4.49-3.76-5.57-2.52-.31.36-4.87,9.82-7.52,15.61l-.86,1.89-4.17.16a276.939,276.939,0,0,0-36.24,4.11c-3.92.76-4.14.97-3.22,3.01.9,2.01,3.17,3.84,4.74,3.84.39,0,3.23-.43,6.31-.95s7.72-1.22,10.29-1.55c5.81-.75,19.2-1.97,19.2-1.75,0,.04-.6,1.47-1.34,3.19-3.12,7.2-6.53,16.23-8.64,22.9-1.15,3.63-1.31,3.97-1.85,4.03a6.844,6.844,0,0,0-2.12,1.41c-5.57,4.85-14.09,10.42-19.17,12.53-2.15.89-4.92,1.67-5.14,1.45-.19-.19.59-3.45,1.53-6.34,1.4-4.35,1.58-5.47,1.1-6.74a8.376,8.376,0,0,0-3.95-3.72,3.226,3.226,0,0,0-2.19.1l-1.29.38-1.27-1.2a10.165,10.165,0,0,0-11.75-1.65,16.493,16.493,0,0,0-3.24,2.36c-1.91,1.78-1.94,1.79-14.72,7.47-3.03,1.36-7.29,3.31-9.46,4.35a40.407,40.407,0,0,1-4.03,1.8c-.14-.15,2.31-4.95,4.11-8.04,1.26-2.18,1.58-2.93,1.58-3.74,0-2.07-2.55-4.69-4.58-4.69-2.39,0-11.01,3.77-16.59,7.24-1.03.64-1.92,1.16-1.98,1.16s-.13-.38-.13-.85a3.942,3.942,0,0,0-1.6-3.02c-1.65-1.58-3.47-2.1-4.53-1.3a1.934,1.934,0,0,1-1,.36c-.95.01-12.87,5.45-17.57,8.01-1.37.75-2.52,1.36-2.56,1.36a11.159,11.159,0,0,1,.52-1.72c.79-2.34.77-3.69-.08-4.96-1.2-1.78-3.18-2.86-4.78-2.6-.76.12-.94.02-2.22-1.26-4.38-4.38-10.43-4.12-15.65.68-.46.43-.95.83-1.37,1.15-.39,1.01-.77,2.05-1.13,3.13-.94,2.79-1.57,3.86-2.23,3.81a7.141,7.141,0,0,1-1.03-.24,7.811,7.811,0,0,1-2.62-1.97,93.43,93.43,0,0,1-9.63,5.42c-3.13,1.51-7.61,3.23-7.84,3-.29-.29,2.54-6.65,4.61-10.4,1.62-2.94,1.72-3.77.62-5.3-1.21-1.67-3.58-2.92-4.8-2.54a4.823,4.823,0,0,0-1.42,1.61l-.91,1.43-4.17.07a30.4,30.4,0,0,0-10.53,1.7c-5.6,1.78-14.01,6.22-22.29,11.77-1.25.84-1.63.99-2.09.81-.31-.11-2.37-.6-4.59-1.08-5.31-1.14-15.82-3.62-22.99-5.43-11.35-2.86-16.5-4.91-19.53-7.77-5.85-5.51-4.12-13.23,5.01-22.4A100.364,100.364,0,0,1,60.47,9.28c9.7-2.52,16.66-3.2,19.21-1.9,3.31,1.69,4.56,7.2,2.79,12.4-1.22,3.62-2.71,6.3-6.19,11.15-2.11,2.95-2.27,3.42-1.67,4.86.71,1.7,3.13,3.74,4.43,3.74.93,0,1.28-.34,3.24-3.09,5.46-7.68,7.35-12.28,7.35-17.88A18.381,18.381,0,0,0,84.01,4.84C79.15,0,73.26-1.07,62.87,1.01c-1.5.3-3.81.88-6.28,1.56a4.174,4.174,0,0,1,.34,1.08l-5.48.41c-1.82.55-3.48,1.09-4.69,1.52A105.949,105.949,0,0,0,21.47,18.87a92.962,92.962,0,0,0-10.01,8.17c-.45.55-.79.98-.83,1.04-.09.11-.11.09-.14-.12-.43.41-.85.82-1.26,1.24C4.55,33.91,1.9,37.87.56,42.18A12.211,12.211,0,0,0,0,46.46v.63a13.308,13.308,0,0,0,.38,4.15c.11.36.24.76.41,1.25a27.143,27.143,0,0,0,1.77,3.96,28.542,28.542,0,0,0,7.15,7.2,57.8,57.8,0,0,0,11.7,5.38c2.81.93,21.92,5.84,28.73,7.38l.94.21L48.82,78.4C39.3,85.87,36.15,89.46,35.18,93.97a8.145,8.145,0,0,0,.1,4.47,5.875,5.875,0,0,0,4.62,3.25c2.12,0,9.65-2.5,13.73-4.56,6.2-3.13,12.55-8.15,14.28-11.29a5.1,5.1,0,0,0,.72-3.23,6.806,6.806,0,0,0-2.05-5.24l-.95-1.08,2.89-1.83c8.69-5.51,15.64-8.61,22.04-9.83a13.59,13.59,0,0,1,1.71-.27c0,.03-.26.79-.58,1.71-1.78,5.12-1.29,8.82,1.55,11.65,3.95,3.95,8.45,3.19,17.53-2.96,2.04-1.37,3.83-2.57,3.97-2.66.16-.09.02.66-.3,1.67a23.519,23.519,0,0,0-.73,2.85c-.33,2.39,2.35,5.63,4.67,5.63.93,0,4.52-1.78,7.01-3.48,1.12-.76,3.96-2.91,6.31-4.77s4.58-3.58,4.97-3.82l.7-.44-1.23,3.68-1.23,3.67-2.81,3c-6.4,6.81-10.33,12.31-13.81,19.3-3.09,6.21-4.48,11.48-4.5,17.06a25.612,25.612,0,0,0,1.2,8.57,6.99,6.99,0,0,0,1.83,3.22,13.509,13.509,0,0,0,1.97,1.81,2.22,2.22,0,0,0,2.59.02c.47-.52,4.88-10.17,8.12-17.76,2.93-6.87,6.7-16.37,9.21-23.22,1.02-2.77,1.99-5.38,2.16-5.79.56-1.34,7.72-7.15,13.2-10.7,3.23-2.1,7.57-4.58,7.72-4.43a10.18,10.18,0,0,1-.83,2.48,34.148,34.148,0,0,0-2.2,7.05c.01,1.41,1.9,4.16,3.38,4.93a4.011,4.011,0,0,0,1.48.34c.72,0,1.04-.26,3.03-2.5A68.372,68.372,0,0,1,180.4,68.88c2.97-1.86,2.93-1.86,2,.34a16,16,0,0,0-1.52,6.61,6.363,6.363,0,0,0,6.26,5.93c2.62.02,4.96-1.05,11.09-5.02,4.72-3.06,12.6-7.78,12.74-7.64a4.78,4.78,0,0,1-.5,1.5,23.435,23.435,0,0,0-1.8,6.53,5.193,5.193,0,0,0,1.84,3.72c1.77,1.71,2.78,1.78,5.61.37a51.011,51.011,0,0,0,9.84-6.8c3.95-3.24,7.45-5.91,7.57-5.79a4.363,4.363,0,0,1-.17,1.14,14.219,14.219,0,0,0-.16,3.04,9.2,9.2,0,0,0,2.86,6.28c3.08,3.08,7.15,3.53,11.96,1.33a71.273,71.273,0,0,0,13.06-8.6c1.3-1.06,2.61-2.11,2.9-2.35l.54-.41-.56,2.46a145.554,145.554,0,0,0-3.2,27.97c-.01,2.69.27,3.4,1.94,4.96,1.79,1.68,3.56,2.25,4.4,1.42.31-.31.37-1.07.37-4.5,0-18.88,5.51-40.29,17.25-67.12l2.15-4.92,6.2-.07c9.94-.12,20.71.55,26.42,1.65a40.006,40.006,0,0,1,8.96,2.87c1.65.83,3.04,1.02,3.67.49.68-.56.52-2.42-.31-3.55ZM62.17,80.63a46.952,46.952,0,0,1-5.3,4.9,53.819,53.819,0,0,1-8.13,5.16c-3.65,1.84-3.83,1.88-2.55.55,2.19-2.27,14.49-11.87,15.22-11.87a1.591,1.591,0,0,1,.73.32c.41.3.41.36.03.94Zm72.59-18.21a39.709,39.709,0,0,1-7.62,5.59c-2.39,1.43-2.95,1.7-2.95,1.39a17.171,17.171,0,0,1,2.07-3.64,9.94,9.94,0,0,1,7.89-4.58l1.92-.1-1.31,1.34Zm-4.92,33.15a69.263,69.263,0,0,1-4.08,10.2c-.95,2.04-2.51,5.23-3.46,7.08l-1.72,3.36.1-3a18.15,18.15,0,0,1,.74-5.16,29.211,29.211,0,0,1,7.11-12l1.48-1.44-.17.96Zm94.87-29.58c-3.59,2.35-5.48,3.38-5.47,3a15.834,15.834,0,0,1,2.32-4.06,11.46,11.46,0,0,1,5.28-3.79c1.59-.5,3.91-.66,3.91-.28,0,.49-3.53,3.48-6.04,5.13Z" transform="translate(9 6)" fill="#fff"/></g></g></g></svg>